<svg width="1600" height="68" viewBox="0 0 1600 68" fill="none" xmlns="http://www.w3.org/2000/svg">
<g clip-path="url(#clip0_1_43)">
<path d="M242.871 12.5488C242.932 12.207 245.635 10.7369 245.405 12.011C245.196 13.2458 242.723 13.4312 242.871 12.5488Z" fill="white"/>
<path d="M304.593 15.7795C303.694 14.4123 306.376 12.7089 307.134 14.1635C305.174 13.9984 306.188 15.721 304.593 15.7795Z" fill="white"/>
<path d="M264.862 14.7062C265.842 14.2472 267.126 13.9926 269.086 14.1635C270.573 16.5706 264.612 16.0974 264.862 14.7062Z" fill="white"/>
<path d="M296.99 17.9334L297.402 16.9465L296.132 16.3175C297.571 15.2623 304.255 15.4283 303.742 17.3909C303.113 18.6075 299.01 17.6011 296.99 17.9334Z" fill="white"/>
<path d="M936.143 16.8539C937.644 16.9808 940.387 16.3125 939.529 17.9332C937.603 18.084 936.346 17.7968 936.143 16.8539Z" fill="white"/>
<path d="M275.85 16.8539C277.776 16.7032 279.02 16.9855 279.236 17.9332C277.635 17.8064 277.364 18.5381 275.85 18.47C275.85 17.9332 275.85 17.3907 275.85 16.8539Z" fill="white"/>
<path d="M350.244 20.0764C349.65 18.2262 353.211 18.1533 354.468 19.0069C355.347 20.8139 351.846 19.8423 350.244 20.0764Z" fill="white"/>
<path d="M271.627 22.7714C268.41 22.2981 270.045 18.5881 273.317 19.0067C273.451 20.7696 275.27 22.4833 271.627 22.7714Z" fill="white"/>
<path d="M188.765 19.5442C189.529 20.5016 190.813 21.1161 191.3 22.2347C187.785 24.2068 184.23 19.959 188.765 19.5442Z" fill="white"/>
<path d="M238.647 21.1604C238.606 21.9025 239.052 22.3413 239.492 22.7714C238.336 22.7522 237.64 23.0297 236.958 23.3129C235.626 22.5074 236.011 20.9059 238.647 21.1604Z" fill="white"/>
<path d="M231.888 23.3129C231.442 22.517 230.631 21.9563 230.185 21.1604C231.32 21.1604 232.456 21.1604 233.571 21.1604C233.808 22.3807 233.375 23.1805 231.888 23.3129Z" fill="white"/>
<path d="M182.852 24.3875C180.743 24.4652 179.337 24.1137 178.621 23.3129C181.662 23.2745 180.96 20.8578 184.535 21.1603C186.407 22.3413 183.055 22.9521 182.852 24.3875Z" fill="white"/>
<path d="M441.56 22.7714C441.567 22.7321 438.695 23.1036 439.013 23.3129C436.985 22.0196 441.797 21.9217 441.56 22.7714Z" fill="white"/>
<path d="M307.979 24.3875C310.574 24.7879 309.608 22.9126 312.203 23.3129C312.203 25.2466 309.243 25.9794 307.979 24.3875Z" fill="white"/>
<path d="M231.888 26.54C230.564 25.4656 227.698 23.8065 231.888 23.3129C232.551 23.6846 233.768 26.3153 231.888 26.54Z" fill="white"/>
<path d="M438.174 27.072C437.39 26.4767 436.606 26.902 433.951 26.5401C434.065 25.5396 434.511 24.7437 435.633 24.3875C435.998 25.291 440.594 26.179 438.174 27.072Z" fill="white"/>
<path d="M329.957 26.5401C329.815 25.193 331.254 24.8559 332.504 24.3875C333.423 25.769 337.364 25.2372 336.722 27.6192C333.559 26.6476 331.917 28.0484 329.957 26.5401Z" fill="white"/>
<path d="M18.8313 30.3097C17.6894 29.7776 17.1422 28.8692 16.2902 28.1558L17.5604 27.8872L17.1415 27.0709C18.5473 26.3537 17.7769 24.255 20.5204 24.3866C23.5485 25.3783 24.6567 30.6754 18.8313 30.3097Z" fill="white"/>
<path d="M342.641 28.156C342.655 26.7311 342.168 24.9826 344.331 24.9241C343.81 26.0322 345.696 28.6638 342.641 28.156Z" fill="white"/>
<path d="M83.9253 29.2302C85.0471 29.2255 84.7028 28.2883 85.6216 28.1557C86.5877 29.2542 84.2904 30.7194 83.9253 29.2302Z" fill="white"/>
<path d="M23.9059 28.6975C25.0478 28.5217 25.521 27.9263 27.2782 28.1557C28.6438 29.6498 23.6355 29.6356 23.9059 28.6975Z" fill="white"/>
<path d="M231.889 28.6978C232.726 28.6978 233.571 28.6978 234.416 28.6978C234.416 29.0492 234.416 29.4054 234.416 29.7673C233.571 29.7673 232.726 29.7673 231.889 29.7673C231.889 29.4063 231.889 29.0501 231.889 28.6978Z" fill="white"/>
<path d="M31.5156 30.3097C32.0765 30.3097 32.6438 30.3097 33.1982 30.3097C33.1982 31.022 33.1982 31.74 33.1982 32.4669C32.6438 32.4669 32.0765 32.4669 31.5156 32.4669C31.5156 31.7391 31.5156 31.022 31.5156 30.3097Z" fill="white"/>
<path d="M333.343 32.994C334.938 32.3987 337.337 32.3152 339.263 31.9148C339.222 32.6619 339.654 33.1064 340.101 33.5355C339.276 34.0003 334.775 33.7555 333.343 32.994Z" fill="white"/>
<path d="M324.036 32.9939C322.407 33.643 319.751 35.0496 318.123 34.0732C317.974 32.7251 320.015 32.7692 320.65 31.9157C320.055 33.3799 324.638 31.5344 324.036 32.9939Z" fill="white"/>
<path d="M17.9792 32.9942C20.5606 32.9703 22.2841 33.4925 23.0615 34.615C21.9333 35.5078 18.2632 34.7956 17.1415 35.6895C16.79 34.3913 18.6821 34.5122 17.9792 32.9942Z" fill="white"/>
<path d="M6.98987 38.3795C6.98987 37.6622 6.98987 36.9391 6.98987 36.2266C8.40213 36.2266 9.81517 36.2266 11.2209 36.2266C11.3429 37.9155 9.0512 38.0713 6.98987 38.3795Z" fill="white"/>
<path d="M442.405 38.3795C441.838 38.3795 441.277 38.3795 440.709 38.3795C440.709 38.0184 440.709 37.6621 440.709 37.3058C441.276 37.3058 441.837 37.3058 442.405 37.3058C442.405 37.6611 442.405 38.0184 442.405 38.3795Z" fill="white"/>
<path d="M1.92188 38.916C1.39795 39.159 0.757883 39.329 -0.00012207 39.4249V37.932C0.950464 37.9013 1.85055 38.1854 1.92188 38.916Z" fill="white"/>
<path d="M143.952 38.916C144.939 38.4666 146.222 38.2085 148.189 38.3785C149.493 40.0001 143.817 39.7992 143.952 38.916Z" fill="white"/>
<path d="M16.2896 39.9952C15.7352 39.9952 15.1679 39.9952 14.5999 39.9952C14.5999 39.639 14.5999 39.2731 14.5999 38.916C15.1672 38.916 15.7352 38.916 16.2896 38.916C16.2896 39.2731 16.2896 39.639 16.2896 39.9952Z" fill="white"/>
<path d="M370.892 40.945C371.134 41.1159 371.318 41.3223 371.377 41.6065C370.39 42.2854 367.87 42.0404 367.998 40.5273C369.346 40.4216 370.334 40.5503 370.892 40.945Z" fill="white"/>
<path d="M375.608 42.6809C376.635 42.5639 376.128 42.0855 375.608 41.6064C376.878 41.6986 378.73 41.4164 379 42.1491C377.872 42.0655 376.446 44.3401 375.608 42.6809Z" fill="white"/>
<path d="M15.4385 42.1491C12.8837 40.151 12.5997 43.7784 15.4385 42.1491Z" fill="white"/>
<path d="M135.504 46.4543C139.546 44.9555 137.552 48.2123 135.504 46.4543Z" fill="white"/>
<path d="M308.823 13.0856C313.811 13.6761 319.386 13.8909 320.65 16.8539C320.65 16.5564 321.339 16.2433 321.501 16.8539C317.447 19.4416 304.255 17.6348 308.823 13.0856Z" fill="white"/>
<path d="M43.4062 46.56H0.00195312V68H1599.99C1600 67.2596 1600 62.0771 1600 68L1599.99 51.8648C1598.96 52.0222 1599.6 52.9429 1598.59 53.109C1597.47 53.0101 1598.36 52.1087 1597.09 52.0818C1589.89 52.3631 1594.02 55.6966 1587.58 56.1901L1587.94 56.6866C1587.17 56.5714 1586.39 56.5416 1585.61 56.485L1586.02 56.1519C1587.8 54.2738 1590.02 52.5801 1591.68 50.6502C1590.12 50.0348 1590.14 50.8624 1588.59 50.2527C1589.9 49.622 1588.53 49.8378 1588.64 48.9381C1589.21 48.6348 1590.06 48.4602 1590.99 48.3218C1592.11 48.4102 1591.23 49.3117 1592.51 49.3386C1599.11 48.5589 1590.52 46.2997 1592.74 43.3875C1588.46 41.3549 1581.83 42.802 1578.69 44.1002C1576.94 43.9321 1578.89 42.296 1576.42 42.4026C1572.14 42.4852 1574.32 45.4827 1568.54 44.8912C1567.03 44.5428 1572.44 43.3618 1569.42 42.2586C1567.15 42.1309 1567 42.9566 1564.72 42.8289C1562.35 42.6072 1563.69 39.8227 1560.12 41.0795C1558.62 40.2711 1559.33 38.5764 1557.91 37.7342C1558.18 36.9499 1560.64 37.165 1560.31 36.1232L1559.15 35.9399C1560.23 35.6125 1561.12 35.3301 1561.8 34.6552L1562.69 35.1755C1563.34 35.2552 1563.42 35.0672 1563.48 34.8578C1565.29 34.8972 1567.11 34.9354 1568.93 34.9643L1568.55 34.3614C1569.33 34.4343 1570.11 34.5065 1570.88 34.5208L1570.48 35.0027C1572.45 35.312 1568.24 36.1194 1570.42 36.66C1577.4 35.2707 1585.41 32.7589 1584.71 29.0038C1580.83 29.5827 1579.44 28.9222 1578.55 27.5635C1576.17 27.2668 1577.02 28.4383 1574.64 28.1369C1573.95 29.0672 1575.69 29.0172 1575.34 29.8131C1574.83 29.8007 1574.31 29.7881 1573.79 29.7747L1574.15 30.2817C1573.1 30.1233 1571.74 30.0446 1570.71 30.0091L1572.22 29.7479C1572.37 29.3611 1572.1 29.1516 1571.49 29.071C1570.15 29.0296 1569.46 29.2812 1569.13 29.6826L1570.59 30.0156C1569.35 30.4055 1568.7 30.7801 1568.41 31.1594L1567.53 30.6504C1566.77 30.6418 1566.91 31.0345 1566.72 31.2936C1566.05 31.0219 1564.98 30.8952 1563.63 30.9029C1563.1 29.8697 1565 29.9448 1564.47 28.9386C1560.81 28.6908 1557.36 31.2592 1556.52 33.4109C1551.73 33.8977 1553 31.985 1549.57 31.9359C1549.28 31.1342 1551.02 31.2487 1550.42 30.2981C1547.44 29.1565 1543.62 30.0822 1540.33 29.4369C1539.95 27.8142 1543.9 28.1482 1545.08 27.2149L1543.91 27.0257C1544.58 27.0622 1545.24 27.0306 1545.93 26.9653C1546.16 26.8222 1546.4 26.7108 1546.66 26.5842L1545.07 26.8406C1544.67 25.1959 1546.75 24.4988 1545.23 23.2477C1535.51 23.6779 1540.8 30.8865 1528.61 30.1953C1525.62 28.5678 1520.78 27.672 1515.49 26.9548C1515.61 26.1089 1516.96 25.818 1517.89 25.3436C1517.12 24.4699 1514.85 24.1713 1514.08 23.2822C1514.07 20.9203 1522.46 21.7414 1519.69 19.0951C1515.82 19.8124 1510.1 20.3576 1505.65 19.8122C1507.87 15.5445 1518.58 15.1183 1520.79 10.8552L1519.62 10.9867L1520.02 10.5096C1510.02 11.0299 1507.58 14.9607 1502.61 17.7796C1500.78 17.7356 1500.34 17.1497 1497.96 17.3446C1497.93 18.1146 1497.9 18.8848 1497.88 19.6597C1496.48 20.0303 1494.69 20.2424 1493.92 20.9011C1492.53 20.9193 1492.3 20.4585 1490.84 20.5094C1490.49 19.4523 1492.28 19.363 1491.69 18.2089C1477.33 18.6592 1464.82 19.944 1454.17 22.0889C1453.38 21.8565 1453.4 21.3111 1451.86 21.3802C1447.21 23.3706 1454.36 25.0451 1454.76 27.0585C1457.49 28.251 1462.46 28.5525 1464 30.2202C1463.64 30.8512 1460.97 30.4256 1461.6 31.5057C1458.43 31.1851 1458.88 32.5132 1458.41 33.4186C1459.7 33.4502 1461 33.4703 1462.3 33.4915C1462.31 33.1708 1462.32 32.8289 1462.33 32.5025L1461.19 32.0898C1462.01 31.9371 1462.51 31.651 1462.99 31.4071L1463.92 31.8726C1467.32 33.5519 1468 36.324 1469.09 38.9288C1467.89 39.3062 1466.81 39.7179 1465.91 40.1846C1464.87 40.0214 1463.96 39.7794 1463.78 39.0765C1463.84 38.5927 1463.82 38.0751 1463.71 37.4961C1461.56 37.2542 1459.35 37.0566 1459.87 35.7603C1456.91 35.7729 1454.33 35.9447 1452.07 36.2711C1452.06 36.8213 1452.03 37.3664 1452.01 37.9167C1457.23 37.8985 1455.53 40.6358 1457.29 41.9955C1456.16 42.8922 1454.57 43.5778 1452.33 43.9723C1451.54 43.2581 1451.04 42.197 1450.64 41.0554C1451.41 40.5091 1451.9 39.7804 1451.98 38.9115C1451.47 38.6907 1450.65 38.5918 1449.71 38.54C1449.39 37.8113 1449.03 37.1688 1448.49 36.7655C1446.65 36.9142 1446.6 37.5107 1446.85 38.2116L1445.89 38.3028L1445 37.7786C1444.04 38.2596 1441.28 39.0911 1444.17 39.4214C1440.9 40.5188 1438.95 42.2076 1438.52 44.5965C1437.21 45.1802 1435.69 45.4011 1434.08 45.4808C1434.08 45.2774 1434 45.1207 1434.13 44.8346C1433.44 45.1179 1432.75 45.4009 1431.58 45.377C1431.57 45.4193 1431.61 45.4701 1431.62 45.5162C1428.49 45.4654 1425.1 45.2533 1421.84 45.9408C1421.73 45.5615 1421.62 45.1715 1421.45 44.8346C1420.43 44.8778 1419.57 45.0228 1418.72 45.1717C1417.87 43.8313 1420.9 42.1644 1420.74 41.2628L1419.57 41.0679L1419.99 40.5859C1419.64 39.1707 1414.7 40.7981 1414.57 39.4855C1411.7 39.8657 1409.41 40.5073 1408.26 41.6701C1404.41 40.2337 1409.24 36.4659 1411.65 34.7953L1411.27 34.2894L1412.44 34.1521C1415.07 33.0613 1409.42 31.8035 1411.79 30.8347L1411.01 30.8154L1411.03 30.4843C1410.46 29.7142 1406.67 30.2587 1404.82 30.0233C1404.97 30.512 1407.12 30.1924 1407.12 30.7329C1406.92 31.0834 1405.57 30.9192 1405.54 31.3628C1403.67 30.7002 1403.2 29.4742 1402.54 28.3248C1395.8 27.7382 1397.06 30.7734 1389.25 29.7191C1389.64 30.2146 1390.37 30.565 1390.76 31.0614C1384.61 31.1113 1379.64 30.5543 1372.84 31.3628C1369.95 33.3196 1363.5 33.6412 1358.7 34.7214C1358.31 35.7747 1357.14 36.4889 1357.01 37.667C1363.9 37.9675 1370.29 37.336 1377.31 36.7484C1378.03 37.0086 1378.45 37.3695 1378.82 37.7699C1372.62 40.4603 1361.12 40.7608 1358.3 44.97C1361.21 46.0858 1367.92 43.6383 1369.96 45.5423C1372.69 44.1874 1377.46 43.766 1380.19 42.4314C1380.82 42.7367 1382.33 42.6676 1382.51 43.141C1381.97 44.7694 1377.16 44.2191 1374.67 44.6454C1374.01 44.7473 1373.67 45.4481 1373.08 45.5968C1371.25 46.0492 1369.04 45.5365 1366.83 45.8033C1366.71 45.8168 1366.93 46.4591 1366.81 46.4659C1359.61 46.9085 1352.95 47.3147 1351.85 50.7942C1351.65 51.4231 1353.05 51.6296 1353.36 52.1423C1354.03 53.2801 1353.72 54.6472 1353.21 56.1191C1352.54 54.4311 1347.35 54.5397 1347.11 52.6857C1342.93 52.5848 1342.41 54.1432 1338.48 54.1662C1337.36 51.9733 1346.16 51.3607 1348.01 49.3952C1344.8 46.3343 1331.03 47.2665 1326.3 47.3088C1327.77 46.2901 1332.2 46.6003 1331.07 44.4237C1325.7 44.3594 1326.23 45.6814 1321.73 44.5762C1320.42 46.5157 1315.73 44.9709 1313.09 46.0462C1310.16 44.7759 1306.73 44.4226 1303.02 44.8479C1301.31 44.7807 1302.75 43.453 1302.32 42.8509C1299.58 42.224 1300.41 43.0325 1297.64 43.0901C1298 42.5822 1300.1 42.8616 1299.25 41.8026C1301.18 41.7881 1301.01 42.6186 1303.03 42.5744C1304.36 42.8913 1306.09 41.8342 1307.03 42.8845C1307.03 42.9123 1306.99 42.9257 1306.99 42.9546C1307.02 42.9691 1307.08 42.971 1307.11 42.9844C1307.18 43.0669 1307.25 43.1169 1307.31 43.2235C1307.56 43.2561 1307.67 43.1946 1307.79 43.1438C1309.37 43.4655 1311.88 43.3098 1312.45 42.7279L1311.29 42.3201L1311.41 42.1461C1311.57 42.1653 1311.72 42.1894 1311.85 42.224C1312.14 42.3018 1312.38 42.4209 1312.38 42.6811C1313.25 42.5888 1313.24 42.3133 1312.84 42.0512C1312.26 41.6787 1310.85 41.3368 1309.84 41.6065C1309.86 41.6862 1309.98 41.7056 1310.04 41.7594C1309.47 41.7882 1308.95 41.838 1308.51 41.9224C1307.44 41.2965 1305.92 41.6766 1304.37 41.9848C1304.83 41.2178 1304.27 40.5437 1304 39.5739C1308.95 37.7814 1310.88 34.6178 1317.47 33.5675C1318.11 31.3869 1321.08 30.273 1320.04 27.3157C1318.68 27.0018 1319.1 25.9696 1316.19 26.2644C1315.85 28.5726 1313.42 31.7238 1307.46 30.3862L1306.29 30.5286L1305.14 30.3394C1299.63 30.7792 1297.46 30.3997 1299 27.9053C1297.52 27.7267 1297.07 27.1576 1295.13 27.1576C1294.78 29.4504 1293.42 30.3499 1292.61 32.0723C1291.55 32.2605 1291.14 32.7494 1291.01 33.3706C1291.78 33.3734 1292.56 33.3973 1293.34 33.4059C1293.32 33.8495 1293.3 34.2826 1293.29 34.732C1289.06 35.5087 1285.63 36.6455 1281.51 37.4732C1280.37 36.1617 1283.51 33.9131 1284.03 32.2376C1283.02 32.0945 1282.83 31.6269 1281.73 31.5281C1279.44 31.6145 1279.17 32.6023 1277.78 33.0957C1275.8 32.6906 1276.32 31.288 1276.34 30.0907C1274.51 29.7268 1273.4 29.0931 1271.72 28.6725C1265.67 31.2102 1268.48 37.7506 1258.87 38.6762C1256.49 38.6743 1255.42 37.4415 1253.45 38.2385C1250.49 37.7911 1251.84 35.6209 1248.88 35.1572C1244.32 36.7673 1239.5 36.6782 1239.34 40.5964C1237.87 39.9531 1238.75 39.9763 1236.24 40.2001C1236.5 39.4263 1237.51 38.9874 1237.09 37.9042C1236.41 37.7449 1235.73 37.5808 1235.57 37.2083C1232.61 36.9913 1230.61 37.2063 1229.33 37.7517C1228.6 36.1886 1230.75 35.9216 1234.05 36.1924C1236.05 34.8501 1239.87 34.3365 1242.72 33.3811C1243.45 32.3374 1241.57 32.3211 1240.44 32.0196L1239.51 32.4948L1238.1 32.3C1238.09 32.4123 1238.08 32.5245 1238.08 32.6369C1236.45 32.7395 1236.04 32.3622 1234.99 32.2355L1234.06 32.711L1232.81 31.3591L1234.23 31.5703C1233.52 29.8881 1237.76 30.4631 1238.21 29.3225C1238.44 27.7162 1234.13 27.9121 1230.48 27.8401C1229.87 28.1224 1229.62 28.5708 1229.65 29.1516C1226.62 29.1757 1225.64 28.3594 1223.46 28.033C1218.75 28.5025 1218.14 30.1636 1211.75 29.1228C1211.13 29.406 1210.88 29.8477 1210.92 30.4353C1205.54 29.7623 1197.94 31.2092 1199.87 33.8429C1195.85 34.0445 1197.68 31.9091 1193.72 32.0723C1198.87 31.1622 1205.06 30.6955 1204.81 27.333C1199.88 27.2985 1195.43 28.015 1193.94 26.1167C1190.92 26.7657 1185.29 26.2415 1183.78 27.5703L1184.14 28.0773C1182.8 27.9505 1181.5 28.1857 1180.24 28.3298L1180.65 27.8469C1178.38 27.5166 1181.15 26.7802 1180.71 26.1896C1179.31 26.2031 1179.08 25.7469 1177.61 25.8035C1177.64 24.9115 1177.67 24.034 1177.72 23.1527C1175.9 23.0124 1174.38 22.3865 1173.81 23.41C1171.33 23.5166 1173.58 21.7585 1170.75 22.0197C1171.85 23.6356 1168.76 23.3561 1166.03 23.2533C1165.57 24.4362 1166 25.2948 1162.83 25.8286C1160.1 25.7143 1158.93 24.9912 1158.21 24.0849C1156.26 24.925 1157.67 26.0447 1154.23 26.6477C1154.21 28.1647 1157.21 28.4988 1159.58 29.0787C1154.82 31.1795 1153.39 34.7925 1145.32 35.4089C1143.34 35.3245 1143.82 34.2645 1143.85 33.3879C1137.16 33.7729 1138.71 39.5327 1129.66 37.7353C1131.92 36.3343 1129.02 34.6253 1129.85 32.7742C1133.74 31.7315 1136.06 29.9716 1137.82 27.9706L1136.64 28.1137L1137.04 27.6212C1134.84 27.8506 1135.05 27.1199 1133.17 27.2158C1133.4 25.262 1131.41 23.2764 1133.38 21.5924C1131.45 21.5127 1130.97 22.0715 1129.47 22.1819L1128.68 22.3336L1127.91 22.1435C1127.55 22.7695 1125.68 22.6994 1126.29 23.7738C1126.98 24.0445 1128.04 24.1608 1129.41 24.1694C1131.81 28.275 1124.96 29.9187 1125.13 34.0069C1124.04 33.1333 1120.71 33.1574 1118.16 32.8694C1117.66 31.841 1117.65 32.2261 1118.22 31.217C1114.71 31.0308 1111.06 30.3172 1109.64 31.7037C1103.74 30.6773 1101.9 32.2586 1101.25 34.1654C1101.06 34.7127 1100.96 35.2831 1100.91 35.8304C1098.84 35.7018 1097.31 35.3455 1096.32 34.7637C1096.31 34.7579 1096.3 34.7551 1096.29 34.7493C1097.26 34.2942 1099.28 34.3038 1100.21 33.8392C1099.99 32.6255 1098.45 31.9352 1095.63 31.7585C1094.79 31.9755 1092.93 33.3955 1091.71 32.348L1090.14 32.6409C1087.93 32.8712 1088.15 32.1299 1086.27 32.2251C1085.26 33.2495 1082.85 33.1939 1080.63 33.1708C1080.62 32.9615 1080.63 32.7445 1080.73 32.4681C1078.56 32.518 1076.7 32.7714 1075.65 33.5376L1076.38 33.8986C1076.28 34.0062 1076.17 34.1089 1076.12 34.251C1076.11 34.2875 1076.06 34.3027 1076.05 34.3422C1075.8 34.3546 1075.62 34.3393 1075.44 34.322C1074.77 34.2519 1074.53 34.0157 1073.77 33.9753L1073.81 33.8996C1074.4 33.1785 1076.28 31.5644 1076.92 32.0416C1077.41 29.9389 1083.25 26.3098 1081.9 24.2061C1086.11 24.6324 1093.27 21.0175 1089.88 19.0654L1089.1 19.2276L1088.31 19.3697C1084.49 19.6693 1081.57 21.3743 1082.73 22.8934C1079.9 23.1544 1081.99 21.4533 1080.45 21.2006C1077.33 21.2535 1074.76 21.0722 1074.26 20.0871C1075.36 19.5666 1077.05 19.3244 1076.67 18.1445L1076.31 17.6433L1076.71 17.1613C1074.07 16.7945 1071.93 16.2424 1068.97 16.0042C1068.69 16.7734 1067.4 17.3399 1068.89 17.9928C1066.09 17.7892 1065.16 17.0568 1062.69 17.5263C1062.42 16.9636 1063.31 16.9165 1064.26 16.9011C1063.59 16.1964 1062 15.8498 1059.64 15.8141C1058.8 16.1061 1059.35 17.0327 1057.26 16.7629C1057.38 17.8074 1056.65 19.1825 1057.93 19.749C1055.52 19.9545 1056.47 18.8177 1054.06 19.0183C1054.72 20.327 1049.95 19.1671 1049.36 19.9094C1052.78 21.5185 1044.88 23.0672 1041.43 23.7287C1041.42 24.0495 1041.4 24.3864 1041.38 24.7233C1044.94 26.0254 1044.88 28.7618 1042.71 30.6945C1051.64 31.0353 1051.92 27.4627 1056.9 26.032C1055.54 25.841 1051.13 25.8036 1053.86 24.3097C1056.44 26.1358 1059.84 24.1233 1064.75 24.5208C1062.17 27.1718 1054.32 27.4213 1053.61 30.9057C1050.92 30.5985 1050.6 31.3406 1048.14 31.1266C1047.81 32.6598 1044.16 32.6898 1044.13 34.3623C1039.92 34.3739 1039.99 34.5648 1037.14 33.8965C1036.08 34.6522 1035.21 35.4895 1032.41 35.4521C1032.05 36.107 1032.22 36.5553 1032.52 36.9518L1032.11 37.0393L1030.84 36.7655C1030.84 36.9411 1030.84 37.1313 1030.84 37.307C1028.65 38.5408 1025.13 37.3715 1025.77 35.1584C1025.77 35.1564 1025.78 35.1544 1025.78 35.1535C1026.34 35.1535 1026.9 35.1535 1027.46 35.1535L1027.25 34.6541C1027.52 34.5716 1027.79 34.488 1028.07 34.4064C1029.97 33.839 1031.76 33.2255 1031.77 31.8017C1033.54 31.1363 1035.63 30.6254 1036.53 29.5799C1037.53 30.0224 1039.38 30.0609 1040.42 29.6586C1040.77 28.9683 1039.92 28.7639 1039.69 28.3192L1038.51 28.4565L1038.93 27.9793C1037.69 27.4225 1033.74 27.43 1031.91 28.1618C1031.65 28.2731 1031.31 29.0901 1031.09 29.142C1029.66 29.4493 1028.36 29.5327 1027.15 29.5855C1027.26 29.3206 1026.95 29.2592 1026.08 29.6375C1025.59 29.6558 1025.17 29.7008 1024.75 29.7343C1024.98 29.4761 1025.22 29.2197 1025.34 28.9624L1025.59 28.8109C1027.58 28.5909 1029.19 28.1513 1029.67 27.5886C1030.53 27.5684 1031.37 27.4772 1032.11 27.3466H1029.82C1029.86 27.1719 1029.83 26.9904 1029.63 26.7994C1028.93 26.6111 1028.24 26.5889 1027.56 26.5658C1025.83 25.4262 1022.3 25.3062 1020.7 26.541L1020.27 27.0729L1019.85 27.6203C1020.38 28.5947 1021.08 28.7639 1021.88 28.7974C1021.86 28.8512 1021.78 28.8981 1021.76 28.9519C1022.44 28.9807 1023.13 28.9711 1023.81 28.9442C1024.18 28.9989 1024.54 29.0431 1024.92 29.2313C1023.94 29.1488 1023.42 29.3534 1023.23 29.7682L1023.7 29.8699C1023.24 29.9611 1022.8 30.0703 1022.49 30.2854C1022.02 30.609 1021.84 30.9749 1021.8 31.332L1021.54 30.8473C1020.27 31.6827 1016.34 33.596 1013.93 31.9167L1012.66 32.1905L1013.09 31.3848C1012.47 30.8818 1011.55 30.5688 1010.54 30.3114C1008.16 30.229 1008.43 31.8295 1007.17 32.469C1006.45 31.3025 1004.05 31.2148 1001.26 31.3858C1001.94 28.3594 1003.72 30.4047 1005.49 29.77C1004.96 29.2966 1004.46 28.8137 1005.49 28.7004C1000.9 24.0188 995.849 31.4243 993.639 26.0004C988.726 25.4781 981.116 27.2207 983.495 22.7733C977.003 21.7863 974.524 23.9648 971.341 25.9822C970.171 25.0729 969.04 24.1474 966.916 23.6211L968.275 19.8142C967.518 21.1344 966.242 22.3846 965.884 23.7219C964.838 23.9669 964.026 24.3124 964.282 25.1554L965.462 25.0069L963.095 25.624L963.504 25.1363C964.119 24.1322 961.394 24.4614 962.015 23.457C958.204 23.1411 958.991 24.9068 955.761 23.984C955.81 24.0791 955.757 24.1359 955.772 24.2194C953.839 23.7595 952.849 23.5404 949.683 24.925C949.894 25.1996 949.954 25.4426 950.032 25.6894C948.715 25.8421 947.552 26.0944 947.113 26.4641C945.983 26.3565 946.479 25.6011 946.067 25.2094C946.151 25.1114 946.197 25.0287 946.296 24.925C945.394 24.8126 944.708 24.8395 944.112 24.923C944.396 24.2145 944.773 23.5512 947.205 23.818C945.76 21.5876 950.176 22.0264 952.742 21.6088C951.746 20.1514 953.31 19.6703 952.085 18.2867C951.066 18.3789 950.84 18.8474 949.719 18.8982C951.476 15.3381 944.47 14.2157 941.285 15.7549C941.941 18.6497 942.733 21.3189 938.692 22.6582C938.216 22.8051 937.383 22.1137 937.184 21.989C937.029 22.0321 936.239 22.129 935.26 22.2452C935.276 22.2432 935.286 22.2378 935.301 22.2359C933.936 19.8585 935.2 17.5338 934.463 15.7816C931.186 15.8555 931.125 17.9592 928.536 18.4719L927.273 18.7408L927.698 17.9353C924.758 18.3693 924.44 17.1335 921.778 17.3926C919.202 19.6452 920.065 23.0567 919.125 25.3696C918.765 25.4666 918.459 25.5414 918.319 25.5548C915.923 25.7345 915.718 25.3265 913.66 25.4521C911.872 26.2674 911.491 27.4658 909.651 28.3567C908.055 29.1336 905.905 29.5051 903.765 29.9102C903.723 29.9178 903.682 29.9264 903.64 29.934C902.743 30.104 901.851 30.2828 901.003 30.5007C900.384 30.6562 900.696 31.3291 900.192 31.476C898.915 31.8342 896.916 30.9384 897.041 32.4054C894.555 31.812 892.968 32.5121 892.329 33.644C890.069 32.2347 879.689 33.0181 880.631 34.0541C877.992 33.5855 874.768 33.357 872.103 32.8943C869.21 33.5202 865.845 34.8538 862.705 34.3671C864.504 32.7982 865.508 32.9528 865.963 30.7857C862.027 30.7348 861.518 30.2732 858.179 30.6284C858.478 31.3283 857.602 31.4924 857.342 31.935C851.063 32.0137 844.448 34.3642 848.595 37.0613C851.692 36.8223 852.503 36.8405 855.593 37.1891C858.002 37.0517 858.087 35.8545 861.091 35.9803C863.542 36.5429 861.869 38.0664 858.683 37.9175C860.161 39.4529 853.837 40.221 850.854 39.0861C850.832 39.3061 850.822 39.5251 850.827 39.7392C849.255 39.2524 851.621 38.6244 850.116 37.7421C843.902 37.3119 835.896 36.5283 830.641 38.0166C830.873 38.7924 831.521 39.3964 832.123 40.0214C834.835 40.1145 840.12 39.4703 843.03 39.9234C842.043 40.8807 837.797 40.1673 836.728 41.7718C835.609 41.5721 832.693 42.0856 832.853 41.377C830.473 41.978 828.353 42.6925 827.296 43.907C821.957 44.8787 818.791 43.4519 814.069 43.6381C815.604 43.3184 817.282 43.0708 816.482 41.7063C813.661 42.2027 808.463 41.8468 805.528 43.141C801.014 45.1179 803.7 40.7138 804.012 42.1089C803.796 41.1344 803.568 40.5667 802.571 39.1149C803.221 38.8471 805.3 38.9835 806.499 38.1991C807.33 37.213 804.79 37.5769 803.409 37.4713C804.003 37.1726 804.845 36.9989 805.763 36.8597C806.915 37.3802 808.075 37.8946 809.61 38.2537C812.739 38.2173 813.595 37.1505 815.898 36.7271C816.16 35.3656 814.918 35.4243 815.984 34.4181C825.904 35.9015 827.951 33.2332 833.978 32.1387C833.989 30.4508 837.866 30.5344 839.527 29.5982C839.504 28.1291 840.545 27.1392 843.51 27.0307C844.669 25.8679 843.814 23.7979 845.245 22.76C845.342 22.1282 848.124 23.3311 849.134 22.5132C849.782 21.1833 847.534 20.9799 846.117 20.4701C848.898 19.2688 850.313 17.4389 854.798 17C855.125 15.8085 856.064 15.4292 854.905 14.3597C851.75 14.1561 849.485 14.3759 849.415 15.5685C847.866 15.5302 848.462 14.6439 846.331 14.8456C842.692 15.7194 843.991 17.0806 839.205 17.6739L839.574 18.1859L836.497 17.4627L837.649 17.6414C837.759 16.4162 836.474 15.7327 834.619 15.2718L834.218 15.7642L833.847 15.2574C830.656 15.1615 830.274 16.327 829.094 17.1431L830.269 17.3372L827.111 18.2666L827.519 17.7683C826.607 17.8048 826.146 17.6741 825.984 17.409C824.992 17.4793 825.166 18.059 825.958 18.0725C824.031 18.0513 823.01 20.28 820.393 20.9385C819.167 22.0648 822.527 22.3933 824.202 23.0059C824.514 23.1076 824.818 23.99 824.946 24.0081C826.638 24.4018 829.36 24.0197 831.154 24.4699C831.848 23.4321 834.973 23.5021 834.371 21.8833C836.145 22.6657 837.65 23.9005 840.539 23.3341C840.022 24.4382 838.664 25.1766 838.093 26.2548C833.515 25.5788 832.125 27.915 828.653 28.7168C827.183 28.5439 827.295 27.7402 824.792 27.9753L825.161 28.4815L824.001 28.2818C823.75 28.2914 823.493 28.2799 823.222 28.279C822.697 27.9889 822.048 27.3427 823.27 27.2841L822.895 26.7879L824.061 26.9607C825.885 26.903 825.551 25.8459 827.982 26.0504C826.083 25.3936 825.377 24.2781 821.03 24.5863C820.773 26.4604 810.635 27.817 809.3 26.0128C807.919 26.2817 806.86 26.7061 806.128 27.2735C806.439 27.914 806.368 28.6956 808.415 28.6293C807.201 29.7556 807.913 31.7737 805.171 32.2153L805.533 32.7118L804.367 32.8598C803.346 35.1689 798.05 35.8938 797.951 37.6902C796.941 37.2476 795.103 37.214 794.064 37.6105C796.204 35.6029 792.677 34.6801 791.113 33.2524L790.697 33.7403L789.551 33.5511C786.138 34.2549 786.329 36.5813 783.933 37.7382C784.616 38.009 785.671 38.131 787.037 38.1291C784.538 38.8876 790.558 40.3777 785.389 40.4112L785.76 40.7462L785.376 41.0738C785.203 41.9051 786.519 42.1395 787.648 42.4457C785.516 42.6098 786.467 44.1537 785.22 44.7087C784.609 44.5263 783.976 44.345 782.896 44.3421L781.972 44.8172C781.694 44.1163 780.292 43.6594 778.638 43.7516L779.047 43.2697C778.154 42.9692 776.975 42.7807 775.177 42.848C774.274 43.6007 775.312 43.7438 773.55 44.4782L771.217 44.4313C769.84 43.5413 771.595 43.4424 770.526 42.4237C764.701 43.1524 765.99 40.4755 764.299 41.9839C762.623 42.0128 764.003 40.803 763.595 40.3134C759.904 40.6532 756.218 39.6094 753.444 40.7673C755.609 42.4398 751.775 43.0391 750.227 44.0059C750.979 44.6877 751.501 45.4479 753.258 45.7284C752.533 46.2968 751.495 46.7201 750.107 46.9785C750.405 47.6256 751.747 47.8483 751.596 48.6683L752.762 48.5263L752.36 49.0132C753.412 49.5624 754.525 50.099 755.404 50.7355C754.776 51.2272 753.848 51.592 753.278 52.123C753.373 51.8533 753.546 51.6314 753.54 51.2973C752.478 51.3404 751.283 51.2973 750.128 51.2781C747.397 50.9199 743.835 51.4942 742.868 52.7942C741.049 52.7606 739.238 52.7213 737.425 52.6829L737.796 53.2963L736.252 52.8308C736.014 52.4927 735.799 52.1604 735.513 51.8176L736.66 52.0117C737.517 51.9445 737.221 51.3616 738.248 51.3761C737.641 50.532 735.562 50.2776 734.421 49.6458C743.203 49.4231 743.768 45.4281 745.58 42.9192C747.745 43.2937 744.417 43.7822 746.305 44.2633C748.981 44.2346 747.051 42.1297 750.281 42.3582C750.287 42.0212 750.308 41.6958 750.313 41.3637L749.141 41.5066C749.78 40.967 748.999 40.5206 748.411 40.1673L749.59 40.0252C751.354 39.0497 753.17 38.6185 756.629 39.1745C757.638 37.6297 758.713 36.0839 763.742 36.3402C763.134 35.3993 764.873 35.5096 764.587 34.7069C762.287 33.3723 762.461 33.0008 763.921 31.3792C761.837 30.928 762.042 30.0696 759.296 30.6294L758.888 31.1113C758.399 30.7138 757.742 29.9927 757.212 29.8786C756.476 29.9391 755.546 30.0139 754.909 30.2808C755.589 30.8251 755.986 31.3743 755.958 31.9831C756.332 32.0993 756.713 32.2376 757.285 32.4094L756.098 32.2163C751.652 33.9052 740.921 32.7398 741.156 36.5496C738.864 35.5625 742.98 33.9332 739.728 33.2084C740.804 32.0417 743.112 30.2559 740.652 29.2611L739.478 29.409L738.312 29.2093C736.95 29.7182 735.445 30.1598 735.899 31.4828C732.785 31.6364 732.804 30.5466 729.691 30.6955C729.023 31.0584 728.634 31.5625 728.845 32.3229C727.007 32.3056 726.583 31.7201 724.201 31.9102C722.739 32.8319 722.89 32.9201 723.336 34.2058C724.628 34.2269 725.926 34.2528 727.217 34.2846C726.561 35.2148 724.567 35.5473 724.02 36.5286C721.638 36.7283 721.194 36.1385 719.368 36.1155L719.736 36.6167C718.124 36.4573 716.858 35.7412 715.077 36.1886L715.493 35.7103C715.222 35.6941 714.979 35.6922 714.715 35.6806C713.94 33.9044 716.643 35.7661 716.309 34.3931C712.702 34.1761 711.14 33.8495 707.762 34.2268C708.376 35.1034 705.331 35.9829 707.675 36.537C705.811 36.2901 701.498 36.2394 701.373 38.3949C700.254 38.1952 699.49 37.8389 699.074 37.3551L697.908 37.5029L698.31 37.0105C695.434 37.2034 692.546 38.6992 693.537 39.5643C692.814 39.8811 687.993 39.8294 686.491 40.7406C685.049 40.6686 686.042 39.6153 684.982 39.3925C682.508 39.0555 682.552 39.8668 681.06 39.9821L681.435 40.4785L680.269 40.6216C680.094 41.6499 683.393 41.3271 684.111 42.0252C681.667 42.8192 677.388 42.7962 676.241 44.1721C673.392 44.3267 673.204 43.4329 673.183 42.4602C675.717 42.0973 673.733 43.546 676.267 43.1878C675.567 41.7524 674.846 40.8182 674.839 39.8465C672.125 40.053 671.874 39.2926 669.402 39.4041C667.273 40.0541 665.141 42.5312 670.052 42.7319C668.535 43.8582 669.932 44.3959 672.311 44.7511C670.576 46.1049 666.601 46.4283 664.414 47.5758C665.642 48.7625 670.111 47.4482 670.583 49.3636C667.32 49.7822 663.117 49.7995 662.719 51.5152C667.473 51.9906 663.647 54.823 666.494 54.5715C667.639 55.9954 662.164 54.4091 663.33 55.8263C662.142 54.965 656.447 53.4423 655.56 55.3425C653.702 55.1063 652.034 54.7933 649.359 54.8807C650.032 54.079 650.438 53.1311 650.244 51.9272C650.134 51.2185 653 51.8272 654.138 51.6688C652.255 50.1941 654.719 50.0674 657.315 50.0875C656.73 48.8796 659.142 48.5186 657.409 47.7678C656.484 47.8043 656.732 48.3563 656.585 48.748C653.557 47.7889 653.981 45.4471 647.353 45.9061C646.453 45.8418 646.712 45.2973 646.617 44.9037C644.213 44.4207 642.268 45.7947 641.165 44.7923C639.178 44.7838 640.009 46.0617 638.002 46.053C635.577 45.4846 635.925 45.3397 632.571 45.6211C631.61 44.2854 635.455 44.8673 633.416 43.9715C635.765 44.4343 636.423 44.2951 638.094 43.7429C638.463 42.6147 635.802 42.6973 635.038 42.0215C634.582 40.5812 636.916 40.4083 639.007 40.1269C638.809 39.4462 636.93 39.4299 636.733 38.7443C638.16 37.1611 640.644 36.0399 645.401 35.9486C643.411 33.5991 647.9 33.9187 647.123 31.3523L645.693 31.4887L644.803 30.9693C642.946 32.3681 638.155 32.4382 635.378 33.4301C633.972 33.4436 633.74 32.9933 632.266 33.0393C631.276 32.1906 635.929 32.3096 633.098 31.7374L631.932 31.8746C632.15 31.6518 632.247 31.4368 632.337 31.2218L633.124 31.0797C634.815 30.8271 635.907 30.3174 635.537 29.1268C631.487 27.774 628.437 30.2616 631.549 31.3687C626.9 30.4795 623.631 32.8799 619.026 33.1017C619.402 34.9173 619.395 35.8421 619.65 37.0882C620.682 37.6855 624.19 36.6369 625.865 37.5385L625.885 37.2179L626.663 37.2254C627.36 36.9892 628.421 36.9077 629.793 36.9596L630.568 36.808L631.342 36.9862C631.215 36.7107 631.659 36.682 632.132 36.6734C631.984 36.9595 632.43 36.9893 632.904 37.0191C632.888 37.238 632.879 37.4625 632.871 37.6766C631.972 37.718 631.495 37.5826 631.335 37.3175L630.547 37.4645L629.773 37.622C628.725 37.5962 627.683 37.5712 626.649 37.552L627.018 38.0636L625.85 37.8698C625.824 38.1904 624.889 38.1099 624.289 38.179L624.664 38.6743L623.484 38.8172C623.727 39.4866 623.283 39.8467 621.888 39.7736L621.479 40.2615L621.11 39.7603C620.148 39.8889 619.49 40.1568 619.522 40.7224C617.88 39.7563 615.386 40.0867 612.523 40.2414C610.698 40.2087 612.843 39.3492 614.119 39.6162C610.782 37.8235 615.498 37.0182 617.383 35.7095C617.346 32.9376 612.023 35.3887 610.431 33.9245L610.059 33.5836L610.465 33.2561C604.643 33.1938 609.86 30.8522 607.481 29.8872C608.374 29.9679 608.859 29.8419 609.035 29.5942C609.127 29.1228 609.199 28.662 608.306 28.5919L607.505 29.1498L605.952 29.2025L607.5 29.2351C607.194 29.4588 606.814 29.7057 606.693 30.0389L605.918 29.8592C604.378 29.5012 602.607 29.2313 602.077 28.4604C600.476 28.5199 601.831 29.9179 599.697 29.7402L600.059 30.2365L598.887 30.3843C597.629 31.9754 598.765 32.971 595.67 33.2965C594.986 34.2105 596.722 34.1703 596.373 34.9615L596.759 35.2964C596.182 35.1621 594.619 35.092 593.659 35.0766L594.824 34.9183C592.104 34.7292 585.571 32.6435 584.708 34.7252L585.859 35.1332L585.453 35.7383C585.71 35.7441 585.96 35.7401 586.23 35.7574C586.874 36.825 583.67 36.1685 583.08 36.6802C582.679 35.9399 584.585 36.2394 584.669 35.7296L583.524 35.3109L583.937 34.705C583.468 34.2538 580.94 34.6062 580.84 33.983C581.911 33.4684 584.94 33.8226 584.782 32.7358L584.4 32.5717C584.831 32.5322 585.017 32.3951 585.198 32.2588L584.802 32.4094C583.26 32.3874 583.836 31.4963 581.705 31.6921C581.993 30.9345 581.638 30.4161 581.001 30.0156C579.594 29.9485 579.332 30.3969 577.871 30.2933C577.725 31.1026 577.674 31.889 579.365 31.9726C579.368 32.0791 579.356 32.1913 579.359 32.3037C577.909 33.1083 574.747 33.1401 573.065 33.8313C573.597 35.6815 580.142 35.1381 579.943 37.2735C578.493 37.4262 578.42 36.8396 579.179 36.928C576.949 36.6505 572.012 38.1434 573.622 39.4626C573.107 39.4558 572.587 39.4481 572.073 39.4357L572.436 39.9426C571.136 39.547 569.813 39.5702 568.943 39.7017L568.956 39.3705C565.912 38.6417 563.787 37.523 560.496 36.8845L559.714 37.0362C560.021 36.465 560.249 36.0712 559.89 35.3771L561.313 35.5769C561.776 34.7838 564.355 34.9384 563.733 33.6451C560.005 33.8198 558.738 33.0241 555.185 33.1373C553.123 33.7922 554.461 34.421 553.55 35.0988C551.939 33.4109 545.664 34.3536 541.524 34.203C541.356 34.0541 541.198 33.9024 540.897 33.7997L541.084 34.179C540.191 34.1252 539.377 34.0312 538.807 33.8084C538.584 32.7753 540.661 32.271 538.894 31.4933C536.244 32.4564 534.863 32.3096 530.314 31.9803C529.914 33.2535 529.412 33.1439 531.017 33.9774C527.796 33.193 523.867 32.6928 524.929 30.2174L523.778 29.8103L524.186 29.2149C522.847 29.1948 522.179 28.9231 521.879 28.5053C520.54 29.1362 518.716 29.5414 516.381 29.72C515.658 31.2976 517.019 32.0704 517.803 33.0508C517.909 33.8823 516.574 34.0646 515.424 34.3354C512.942 34.2327 512.899 33.1651 510.818 32.9011C509.19 32.9663 510.537 34.3595 509.189 34.5313C505.923 34.8107 503.941 33.7324 502.176 34.3931L502.576 34.7388C501.5 34.6716 500.214 35.2215 499.421 35.497L499.823 35.0036C497.616 35.4846 496.535 34.562 494.366 35.2295C495.025 35.7315 495.49 36.3008 497.444 36.2836C497.383 37.2735 495.37 37.3608 495.03 38.2212L496.181 38.6293L495.775 39.2236C496.096 39.72 496.758 39.1217 498.108 39.2812C497.43 40.0301 496.74 40.9412 496.426 41.8676C495.922 41.5786 495.2 41.43 493.974 41.6018C493.96 42.2249 493.98 42.87 493.976 43.4971C491.863 43.7006 492.038 42.997 490.171 43.0805C491.823 44.0772 490.815 44.9575 490.489 45.6363C489.524 45.4462 488.408 45.5029 487.147 45.7304C486.949 45.4271 486.633 45.1283 486.347 44.8336L487.764 45.0123C487.243 43.9954 488.598 43.8331 488.621 43.0582C487.52 43.0611 486.404 43.0746 486.288 42.6761C487.488 41.5335 489.657 40.8346 491.081 39.7957C485.337 38.2259 485.788 42.3315 479.331 41.5433C480.468 43.549 475.328 43.16 474.517 45.0861C478.158 44.944 479.498 45.7131 482.281 45.912L482.69 45.4135L482.26 46.5697L482.267 46.2431C481.675 46.6598 481.019 46.9479 480.372 47.1899C478.756 47.4684 477.077 47.6401 475.375 47.519C474.12 47.3797 473.793 46.9949 473.79 46.5321C474.095 46.2125 474.176 45.8657 474.052 45.5075C474.215 45.013 474.292 44.5551 473.679 44.2968C473.435 44.3237 473.275 44.4044 473.051 44.4448C473.027 44.4322 473.02 44.4141 472.995 44.4016C467.92 44.7598 467.092 44.2393 462.115 43.8418C461.32 44.272 459.979 44.4544 459.729 45.1217L460.506 45.1351C459.875 45.3539 459.195 45.4722 458.522 45.9216L458.937 45.4395C458.251 45.2216 457.556 45.0083 457.382 45.4067C456.359 45.5585 457.105 43.7555 458.984 44.1194C458.289 43.5222 456.588 43.3311 454.345 43.3636C454.763 44.0338 454.167 44.247 453.573 44.463C452.879 44.03 452.209 43.6007 451.54 43.1754C453.057 42.4851 455.548 42.2441 455.987 41.0815C454.946 41.0565 453.917 41.0315 452.869 41.0114C452.477 41.7977 452.444 42.2018 451.431 43.1062C449.936 42.1519 448.657 41.1543 447.775 40.0357C447.883 39.6863 447.982 39.3396 448.277 38.9355C447.976 38.7913 447.473 38.73 447.011 38.6522C446.869 38.272 446.705 37.8997 446.682 37.4781C447.415 37.939 448.629 38.2556 449.846 38.9729C452.022 38.9575 453.166 38.463 453.009 37.3761C451.869 36.8557 448.565 37.1891 449.174 35.9716C448.47 36.2193 447.403 36.2962 446.051 36.249C445.931 36.7166 446.112 37.0227 446.403 37.2859C444.958 37.115 444.74 37.6701 444.948 38.2816C442.936 38.6533 444.842 40.8019 441.981 40.7933L442.353 41.1342C441.894 41.1631 440.964 41.307 440.01 41.5845L440.412 41.0967C440.437 40.3267 440.461 39.5566 440.498 38.777C438.023 38.3592 437.759 38.6417 435.075 38.0082C433.569 38.3595 430.553 41.2312 434.995 40.323C434.632 40.7242 433.968 40.9815 432.635 40.945C434.224 41.2821 433.219 42.6561 435.686 42.6512C435.56 43.3907 432.381 42.7279 431 42.896C430.9 45.0218 425.395 45.0967 421.143 45.6219C420.899 45.5384 420.648 45.523 420.41 45.3714C420.41 45.186 420.41 45.0092 420.41 44.8287L418.721 45.3714C415.409 45.4049 412.375 45.6296 410.273 46.4496L410.447 46.7818C409.538 46.6974 409.117 46.8337 408.791 47.0122C408.36 47.2485 408.009 47.5219 406.699 47.3587C403.728 46.5589 407.252 46.0146 403.629 45.9742C405.362 44.1874 409.068 43.286 411.572 41.8391C411.815 40.8732 409.853 40.7886 410.09 39.8227C410.453 39.0959 414.222 39.8918 414.783 39.2524C414.707 38.5275 412.847 38.5053 410.928 38.5158C410.797 37.4501 412.352 37.1401 411.799 35.8891C406.432 35.2361 410.025 31.8851 407.32 30.8356C405.742 31.3532 406.338 30.7935 404.208 30.7704C401.117 31.9495 404.737 31.7603 404.899 33.1045C404.909 33.2006 402.301 34.8895 405.617 34.7694C405.779 35.7392 403.826 35.7507 403.974 36.7311L404.353 37.0554L403.955 37.3935C406.831 37.9062 401.663 37.3792 402.373 38.0082L402.741 38.5093L400.6 36.9806L400.693 36.5515C401.066 35.9792 402.177 35.4837 401.062 34.8462L402.485 35.0363C402.139 33.9945 404.231 33.7787 402.559 33.048C400.939 32.8829 400.488 33.2427 399.435 33.3243L399.817 33.8256C399.036 33.694 398.253 33.6653 397.48 33.6192L397.886 33.2977C395.861 32.8128 396.455 31.7989 397.194 30.9586C394.101 30.7004 388.267 30.3827 385.483 31.7278C386.263 33.1728 387.969 34.8914 386.101 36.0388C387.11 36.4487 387.321 36.1788 388.441 36.0848C390.704 39.5201 395.105 42.1597 395.352 45.2494C394.505 45.3541 393.719 45.4751 392.942 45.6392L395.358 45.2945C395.397 45.8879 395.336 46.4929 395.018 47.1295C397.624 48.127 397.872 48.8432 398.264 49.8138C396.286 49.6948 394.341 49.6143 392.509 49.6728C394.009 47.813 395.253 48.9065 394.199 45.9089L392.942 45.6392L393.36 44.8299C389.366 42.9844 384.291 45.7872 381.526 44.8299C380.709 46.7875 385.318 45.2839 384.899 46.9871C384.664 48.3919 382.871 48.8086 380.662 48.9613C380.989 48.5773 381.098 48.0952 380.992 47.5153C378.891 46.8422 377.448 46.8711 375.405 46.8249C374.532 46.4917 373.399 46.4371 372.525 46.6752C372.494 46.6722 372.478 46.6743 372.445 46.6714C372.437 46.6906 372.395 46.6953 372.385 46.7136C371.936 46.8606 371.547 47.0671 371.374 47.4204C370.245 47.8448 368.579 48.026 367.713 48.5675L368.857 48.9816L368.845 48.9986C368.168 49.0744 367.531 49.1754 366.909 49.2858L366.522 49.1485L366.928 48.5542C365.703 48.4946 363.957 48.6521 363.838 48.1576L362.99 48.2354C362.982 48.1875 362.952 48.1557 362.945 48.1067L364.239 47.6699C363.848 47.7372 363.371 47.8803 362.93 48.0599L362.928 48.0568L362.253 48.2018L361.91 48.0087C362.552 47.2195 362.425 46.4362 361.651 45.6412L362.928 45.9101C365.111 43.6201 366.983 42.3267 366.301 39.4607L365.03 38.8212L365.463 37.8351C361.786 37.1265 360.739 37.5326 357.853 38.3765C355.744 36.4535 351.595 35.5596 347.702 36.224L348.135 37.0344C346.573 36.6925 345.337 36.8001 343.891 36.7608L344.323 36.224C342.141 34.9009 340.262 36.8001 339.255 37.8351C337.72 36.8346 334.983 36.609 332.496 36.224C331.739 37.1851 330.131 37.5904 330.794 39.4607C327.387 39.5346 328.557 38.0695 329.104 36.7608C320.879 35.5059 313.303 36.4334 314.729 29.7642C311.614 29.237 310.545 27.4109 307.971 26.5373C304.936 26.737 304.876 27.9821 302.05 27.0692C302.699 27.553 302.956 28.2905 302.896 29.2276L303.314 30.0436C302.477 30.2134 301.638 30.3651 300.78 30.5755L301.206 29.7651C301.206 29.4041 301.206 29.0469 301.206 28.6954L299.936 28.9597L299.517 28.1539C299.233 28.1539 298.95 28.1539 298.666 28.1539C297.99 28.0465 297.828 27.6126 296.983 27.6175C296.544 25.6549 300.68 25.2007 298.666 23.8488C295.003 24.7762 290.096 23.0134 286.826 24.9221L287.251 25.913L285.717 25.3955C284.318 24.8184 283.088 24.0869 281.338 23.9409L282.601 23.311C282.385 21.5146 277.08 21.1776 274.999 22.2319C274.904 25.0488 276.12 24.2625 276.688 27.0701C275.404 27.8469 269.822 24.5613 267.382 25.9967C266.361 22.4911 267.368 20.7676 269.078 17.9313C268.361 17.4235 263.691 16.7783 263.158 17.9313C262.909 17.5656 262.469 17.3025 262.078 17.0115C262.136 17.0087 262.178 17.0117 262.237 17.0087C262.838 16.0102 261.487 15.7883 261.533 15.0116C259.457 14.9664 257.38 14.9261 255.305 14.8868C255.319 15.0222 255.427 15.093 255.463 15.2141C250.309 15.1364 244.756 17.0433 245.398 20.6207C245.06 21.6558 242.127 21.0404 242.864 22.7686C245.08 22.3933 245.461 23.1719 246.394 23.6059C245.401 23.4705 244.436 23.3244 243.314 23.242C243.297 23.7863 243.272 24.349 243.256 24.8992C244.905 24.977 246.11 25.2323 247.152 25.5529C247.697 29.4771 253.05 30.0445 256.379 28.155C256.441 28.4026 256.485 28.6419 256.339 28.7974C258.148 28.9482 259.681 29.2054 260.188 29.8699C260.372 29.7941 260.453 29.7153 260.564 29.6375C260.667 30.8809 260.845 32.0771 263.16 31.913L263.579 31.1171L264.708 32.7283L263.16 32.4641C263.16 32.6407 263.16 32.8155 263.16 32.9921C259.017 34.4181 251.813 32.8405 247.095 34.0714L247.528 34.8818C246.71 33.8766 246.197 33.6517 244.98 33.2657L246.258 32.9921C245.778 30.2482 239.155 31.4157 236.114 30.3077C232.816 32.1532 226.537 32.0993 224.274 34.6129C222.233 34.828 222.436 33.6269 220.043 34.0714C214.528 38.0253 204.627 26.7484 195.524 32.465C195.416 33.4223 196.565 33.5981 196.376 34.6138C195.173 34.5648 193.984 34.5169 193.835 35.1507C192.077 33.2668 191.942 33.7545 188.759 32.465C190.523 31.2111 192.335 33.0613 193.835 31.382C195.687 29.337 192.145 29.3417 192.145 27.0709L190.875 27.3446L190.455 26.5391C190.168 26.7734 189.781 26.9425 189.369 27.097C188.755 27.0692 188.096 27.1027 187.497 27.0893L188.918 27.2525C187.384 27.6912 185.253 27.7441 182.845 27.6183C183.534 29.1411 181.642 29.0095 182 30.3086C180.845 29.0394 173.952 28.6341 171.856 29.766L172.275 30.5763C171.438 30.7425 170.579 30.903 169.734 31.1181L170.16 30.3077C168.47 30.3077 166.788 30.3077 165.085 30.3077C164.436 30.7811 164.179 31.5232 164.247 32.465C162.557 32.465 160.869 32.465 159.165 32.465C159.165 31.9139 159.165 31.382 159.165 30.8444L157.908 31.1181L157.482 30.3077C156.259 30.9626 156.198 32.3575 154.941 32.9921C150.926 32.7676 148.851 33.7786 145.648 34.0714C146.013 36.683 156.718 38.2942 158.327 35.1507C160.07 35.2927 159.124 37.1515 160.868 37.3042C157.11 41.5758 150.23 41.1802 138.884 41.0679L139.303 42.0599L138.032 42.6801C140.972 43.861 147.589 42.6993 149.866 44.3008C149.076 46.9518 150.893 47.9483 152.414 49.1446C152.117 50.9209 147.203 49.7793 148.183 52.3668C141.837 51.1168 139.628 50.0817 131.261 50.7558C126.071 46.4697 115.967 50.9814 110.98 49.1457L110.135 49.4087C110.081 48.6568 109.621 48.2076 109.203 47.5777L110.98 47.524C111.371 46.3766 109.771 46.4985 108.452 46.4543C108.587 45.8245 108.263 45.497 107.601 45.3761C107.763 44.9411 108.452 44.8337 108.452 44.3017L107.175 44.033L107.601 43.2226C104.695 44.3602 102.424 42.5485 100.829 44.3017C99.2336 44.2384 100.248 42.5256 98.2876 42.6811L97.8689 43.4915C97.531 42.754 96.1927 41.8898 95.3414 41.6065L95.7603 41.069C96.1183 39.9466 95.1792 39.644 94.9153 38.9163C92.8138 38.8336 92.2931 39.766 90.6915 39.9954C87.4209 37.671 80.4731 39.063 76.3168 40.5273C77.5132 36.4898 66.7065 37.3446 64.4832 35.1525L63.2058 35.4165C63.8004 34.8846 63.8479 34.3373 64.0645 33.8053L63.6383 34.6157C60.2659 35.7977 57.874 34.269 53.4874 34.6157C53.4128 36.6176 52.5414 36.1492 53.4874 37.8382C52.6426 37.8382 51.7983 37.8382 50.9535 37.8382C49.8044 37.672 50.2505 36.491 50.1156 35.6902C48.953 37.1103 45.0742 36.7839 43.3442 37.8382L43.7694 38.824L42.4922 39.4635C44.8303 40.6503 44.8912 41.6902 44.1813 43.7602C48.77 42.6475 54.0682 41.9196 58.5624 42.1501C58.2382 43.912 56.0823 44.5178 55.1835 45.9137C48.7902 46.2211 48.1283 44.8634 43.3436 45.9137C43.2554 46.2019 43.37 46.3556 43.4062 46.56ZM257.512 27.2803C258.328 26.5045 258.934 25.5742 258.937 24.3875C261.005 24.7341 259.072 26.902 258.099 27.072C259.806 26.997 260.278 27.7056 260.451 28.6033C259.743 28.0819 258.396 27.6011 257.512 27.2803ZM927.518 31.9505C926.469 33.3859 925.465 34.85 924.318 36.2269H925.163V36.7636C925.845 36.8663 926.007 37.3051 926.859 37.3051C927.154 39.0075 925.683 39.5846 924.255 40.1837C923.223 39.3234 923.767 38.395 924.882 37.2602C923.749 37.1852 923.488 36.95 923.47 36.6408L924.508 36.3871C924.18 36.4458 923.832 36.4669 923.486 36.4919C923.547 36.0061 923.92 35.3897 922.643 34.8991C919.719 34.3605 921.107 35.7795 918.723 35.4828C919.648 34.4679 918.535 34.5994 919.567 33.8553C921.773 33.6152 921.559 34.3555 923.442 34.2547C924.076 33.1583 925.955 32.6236 927.518 31.9505ZM928.682 29.5569L929.516 29.4273C929.447 29.5061 929.388 29.5895 929.32 29.6691L928.682 29.5569ZM1447.06 48.0164C1447.04 48.0395 1446.97 48.0445 1446.96 48.0704C1446.72 48.0484 1446.6 47.9963 1446.39 47.9665C1446.61 47.9914 1446.84 48.0068 1447.06 48.0164ZM412.973 49.3031C412.666 49.352 412.319 49.3837 412.061 49.4548C412.307 48.9325 411.36 48.8787 411.324 48.4525L411.478 48.268C412.233 48.4504 412.877 48.7031 412.973 49.3031ZM463.466 49.518L467.094 49.1273C467.317 49.3645 467.47 49.645 467.585 49.9503C466.986 50.2634 466.565 50.6597 464.975 50.529C465.427 49.8062 463.545 50.0078 463.466 49.518ZM493.958 43.9101C493.949 44.0915 493.955 44.2853 493.93 44.4581C493.321 44.341 493.72 44.1808 493.958 43.9101ZM497.562 43.404L497.546 43.4548C497.541 43.4385 497.534 43.4241 497.529 43.4077L497.562 43.404ZM947.494 29.36C946.574 30.1253 945.871 30.9192 946.295 31.9158C947.213 31.8802 947.689 32.1195 948.261 32.2981C946.955 32.2769 945.522 32.2799 943.766 32.348C942.185 33.6461 943.883 36.9729 941.95 38.9231L941.964 38.9412C941.724 39.0335 941.505 39.1392 941.243 39.2189C940.49 39.092 939.762 39.0153 939.221 39.0392L940.396 38.8914C940.75 38.105 939.007 38.1445 939.684 37.2198C938.618 37.1391 937.738 37.1412 936.959 37.1882C938.67 34.179 942.614 32.5928 945.444 30.3097C945.533 30.0677 945.571 29.8507 945.592 29.6413C946.229 29.5318 946.862 29.4446 947.494 29.36ZM965.567 32.1195C966.356 32.0042 966.9 31.9544 967.355 31.9294C967.328 32.4968 967.455 32.9663 968.272 32.994C968.173 33.0641 968.057 33.0919 967.953 33.1564C967.925 33.1553 967.896 33.1553 967.867 33.1544C967.867 33.1698 967.865 33.1852 967.865 33.2016C967.065 33.6884 966.201 33.9965 965.311 34.1731C964.582 33.6844 963.556 33.3051 962.021 33.2053L964.22 34.3555C963.277 34.4256 962.361 34.3354 961.492 34.153C961.744 33.9552 962.042 33.7852 962.402 33.7228L962.021 33.2053L963.2 33.0576C962.531 31.8651 960.235 32.6112 958.455 32.8474C957.515 32.1214 956.98 31.2361 957.283 30.3097C957.585 29.243 959.072 28.9307 960.209 28.3959C959.925 28.9278 958.204 28.8021 958.647 29.6719C960.81 30.5438 964.666 30.7455 965.567 32.1195ZM1055.11 34.1558C1054.82 35.1236 1055.04 36.1222 1056.2 36.7627C1056.26 36.7271 1056.34 36.7107 1056.4 36.6762C1057.23 36.9853 1058.61 37.0717 1060.38 37.0074C1060.56 36.3717 1060.4 35.8765 1059.87 35.5281C1063.27 34.8646 1066.89 35.2716 1070.58 35.3293C1068.49 36.2586 1066.23 37.1054 1064.99 38.4256C1060.26 38.0674 1059.97 39.7333 1058.67 40.9363C1056.55 39.981 1054.81 41.1025 1053.19 42.1548C1052.93 41.5249 1053.32 40.8596 1054.51 40.5264L1053.25 39.9061L1053.66 38.9152C1050.09 39.594 1048.24 38.5582 1046.06 39.4617C1043.74 39.1439 1044.78 38.2807 1044.87 37.5221C1045.39 37.4482 1045.92 37.3732 1046.39 37.2754C1046.9 37.7823 1047.97 37.9359 1049.44 37.8351C1049.54 37.2455 1049.3 36.8768 1048.89 36.6167C1051.14 35.8774 1052.93 34.9307 1055.11 34.1558Z" fill="white"/>
<path d="M167.632 23.3129C164.577 20.9644 162.914 25.9936 165.09 27.0718C164.002 27.1113 163.915 27.7709 162.563 27.6192L162.982 26.8089L161.712 26.54C161.712 26.3643 161.712 26.179 161.712 25.9985C159.103 26.3748 160.09 26.3748 157.488 25.9985C157.522 24.2356 158.914 23.3225 158.333 21.1603C161.719 21.1402 166.517 19.2266 168.477 20.0764C165.685 20.3885 169.537 23.5616 167.632 23.3129Z" fill="white"/>
<path d="M41.6599 39.4625C38.0916 41.836 34.4353 42.7732 29.8198 42.68L30.2386 41.884L28.9813 41.6055C28.9677 41.064 29.657 40.9707 29.8191 40.5262C26.7307 39.9847 23.6286 39.4529 23.0605 37.3041C27.0885 36.4793 38.8542 35.2531 42.4971 37.8359L41.2397 38.4658L41.6599 39.4625Z" fill="white"/>
<path d="M329.956 23.8507C327.624 20.6621 328.273 22.5708 323.191 23.3129C324.752 19.5482 319.474 22.9329 317.271 21.1604C317.426 18.9002 320.488 17.8995 322.34 19.5444C323.894 18.6168 324.881 17.0203 322.34 16.3175C324.313 16.3175 326.3 16.3175 328.267 16.3175C327.611 18.1724 328.733 18.8848 331.653 18.47C331.707 19.4071 331.457 20.1397 330.802 20.6235C333.112 20.5737 332.504 21.5165 334.188 20.6235C334.667 21.746 336.283 22.1609 335.87 23.8507C333.95 23.5867 331.558 22.7802 329.956 23.8507Z" fill="white"/>
<path d="M357.86 19.5442C357.752 20.0964 361.503 20.638 358.705 21.1603C359.158 20.3787 355.407 19.8467 357.86 19.5442Z" fill="white"/>
<path d="M717.172 28.6976C717.179 28.6794 717.182 28.6735 717.189 28.6553C717.168 28.708 717.148 28.7607 717.13 28.8048C717.148 28.7616 717.146 28.7658 717.172 28.6976Z" fill="white"/>
<path d="M414.508 37.305L414.927 36.4946L414.508 35.6892C416.467 35.3225 416.765 33.8974 418.725 33.5363C419.144 34.171 419.638 34.7567 420.415 35.1523L419.996 35.959L420.415 36.7644C418.333 37.4412 416.096 39.16 414.508 37.305Z" fill="white"/>
<path d="M373.918 43.2223C373.046 43.6179 373.242 46.7921 368.849 46.4542C368.876 45.712 368.444 45.2626 367.998 44.8334C369.606 44.3793 372.87 42.2459 373.918 43.2223Z" fill="white"/>
<path d="M284.845 17.5029L293.501 17.119C293.646 16.7033 294.146 16.4566 294.98 16.347C294.96 16.6774 295.574 16.7426 295.727 17.021L297.402 16.9465C293.314 17.4937 288.982 18.6157 284.845 17.5029Z" fill="white"/>
<path d="M988.344 21.4329L983.789 21.2778C985.465 20.439 986.911 20.8818 988.344 21.4329Z" fill="white"/>
<path d="M992.154 22.3807C990.789 22.4786 989.567 21.9216 988.344 21.4329L995.331 21.7019C994.148 21.7066 992.648 21.4676 992.154 22.3807Z" fill="white"/>
<path d="M17.5596 27.8883L15.4374 27.6198C15.8232 27.5469 16.6816 27.6974 17.5596 27.8883Z" fill="white"/>
<path d="M458.896 40.2585C459.49 40.3027 460.085 40.3613 460.375 40.4582C461.179 41.1611 460.842 42.0933 461.092 42.8702L458.896 40.2585Z" fill="white"/>
<path d="M190.88 27.3456L192.205 26.0813C191.894 26.4028 191.638 26.7157 190.88 27.3456Z" fill="white"/>
<path d="M159.09 30.104L162.982 26.8088C161.955 28.0291 160.455 29.0345 159.09 30.104Z" fill="white"/>
<path d="M131.145 41.2791L123.244 40.5285C125.84 40.5725 128.468 40.9234 131.145 41.2791Z" fill="white"/>
<path d="M139.309 42.0607C136.531 41.9974 133.815 41.6361 131.146 41.2804L139.309 42.0607Z" fill="white"/>
<path d="M107.18 44.033L110.1 41.2455C109.255 42.2163 109.046 43.4857 107.18 44.033Z" fill="white"/>
<path d="M30.2386 41.884C28.6169 42.5043 27.4273 43.0266 25.589 43.2224L30.2386 41.884Z" fill="white"/>
<path d="M1035.49 33.2677C1034.54 34.0971 1033.12 34.7616 1031.69 35.2397L1035.49 33.2677Z" fill="white"/>
<path d="M1020.27 27.0723C1018.86 27.1796 1017.46 27.4087 1016.04 27.3455L1020.27 27.0723Z" fill="white"/>
<path d="M1012.66 32.1887L1016.04 30.5777C1015.12 31.1442 1014.04 31.7154 1012.66 32.1887Z" fill="white"/>
<path d="M422.111 43.2224L419.576 45.1025C419.712 44.3113 420.78 43.2907 422.111 43.2224Z" fill="white"/>
<path d="M299.944 28.9615V27.8872C300.268 28.1369 300.065 28.5516 299.944 28.9615Z" fill="white"/>
<path d="M927.269 18.7389L928.114 17.655C927.925 18.016 927.736 18.3817 927.269 18.7389Z" fill="white"/>
<path d="M433.525 35.241C429.065 35.7529 424.53 35.8555 419.995 35.9581L433.525 35.241Z" fill="white"/>
<path d="M1486.09 1.87784C1486.61 1.8904 1487.13 1.90282 1487.65 1.9105C1487.66 2.33196 1488.62 2.39064 1488.39 2.92355C1487.86 2.90537 1487.35 2.89843 1486.82 2.89074C1486.8 2.46441 1485.85 2.40498 1486.09 1.87784Z" fill="white"/>
<path d="M1526.72 18.5785L1526.35 18.0706L1525.18 18.2184C1524.21 16.7715 1527.43 17.2189 1528.34 16.6266C1526.12 14.8531 1529.82 14.011 1533.12 13.7412L1534.13 14.2002L1535.44 14.4507C1534.29 16.4037 1530.51 18.9299 1526.72 18.5785Z" fill="white"/>
<path d="M986.156 2.76405C986.078 1.94213 986.075 1.15082 987.778 1.13944C987.751 1.79712 989.884 1.60021 989.273 2.4922C988.227 2.56803 987.775 2.93405 986.156 2.76405Z" fill="white"/>
<path d="M1180.63 7.65193C1180.45 6.89624 1180.88 6.41935 1182.25 6.36362C1182.04 6.94931 1182.96 8.03982 1180.63 7.65193Z" fill="white"/>
<path d="M864.769 0.662703C869.765 0.375182 866.446 1.70089 864.769 0.662703Z" fill="white"/>
<path d="M1519.78 16.7811C1519.25 15.3313 1522.86 15.3399 1523.7 16.1915C1522.2 16.3135 1522.25 17.1085 1519.78 16.7811Z" fill="white"/>
<path d="M1484.77 16.0782C1484.26 15.1785 1486.4 15.4628 1487.14 15.1296C1487.25 15.8603 1486.47 16.1781 1484.77 16.0782Z" fill="white"/>
<path d="M1134.66 8.71982C1134.67 8.50606 1134.68 8.28742 1134.68 8.06317C1135.2 8.06982 1135.72 8.08816 1136.23 8.10057C1136.22 8.31344 1136.21 8.5377 1136.21 8.76195C1135.69 8.73992 1135.18 8.73224 1134.66 8.71982Z" fill="white"/>
<path d="M870.011 6.05466C865.77 5.89042 865.35 4.22058 864.688 2.63929C868.044 2.50772 867.815 3.78287 870.883 3.75315C870.841 4.6308 871.104 5.65139 870.011 6.05466Z" fill="white"/>
<path d="M1148.62 9.99808C1149.36 11.9208 1145.25 10.0652 1148.62 9.99808Z" fill="white"/>
<path d="M1004.63 8.42963C1010.55 6.78684 1013 9.55015 1012.29 11.891C1006.37 12.0715 1003.82 10.9174 1004.63 8.42963Z" fill="white"/>
<path d="M1060.95 11.7018L1059.78 11.8392C1057.95 11.2765 1055.74 10.8541 1055.2 9.77397C1057.63 8.62181 1064.9 9.33241 1064.48 11.2843C1064.44 11.8296 1062.31 11.4225 1062.12 11.8959L1060.95 11.7018Z" fill="white"/>
<path d="M877.582 11.8304L877.984 11.3369L876.81 11.4858C877.995 10.2213 878.161 8.50355 880.833 7.91875L881.735 8.44412L883.165 8.30176C884.766 10.1981 881.522 14.4295 877.582 11.8304Z" fill="white"/>
<path d="M1526.65 20.2242C1526.85 20.6908 1526.11 21.51 1525.85 20.8791C1525.67 20.4173 1526.39 19.5924 1526.65 20.2242Z" fill="white"/>
<path d="M1034.16 10.0169C1034.39 10.4565 1035.24 10.6668 1034.89 11.3448C1032.22 11.5445 1031.89 10.0284 1034.16 10.0169Z" fill="white"/>
<path d="M535.339 2.30978L535.741 1.81633L534.589 1.63303C534.94 1.01275 536.288 0.839948 536.204 0.0141912C538.006 -0.0539566 539.187 0.129491 540.085 0.424257C540.441 1.92499 538.859 2.55458 535.339 2.30978Z" fill="white"/>
<path d="M1135.24 13.6835C1135.27 13.3629 1134.63 13.2881 1134.5 13.0183C1135.49 13.0232 1135.58 12.6207 1136.85 12.7437C1136.83 13.0643 1136.81 13.3957 1136.8 13.727C1136.27 13.7193 1135.76 13.7066 1135.24 13.6835Z" fill="white"/>
<path d="M1057.45 11.7989C1057.83 13.919 1050.94 11.6951 1055.12 11.4215C1054.94 12.6898 1055.76 11.5599 1057.45 11.7989Z" fill="white"/>
<path d="M842.686 8.14463C844.061 7.88061 845.133 7.10378 845.799 8.21469C845.313 8.30871 842.766 8.98768 842.686 8.14463Z" fill="white"/>
<path d="M1034.87 11.6769C1035.35 12.6832 1037.82 12.8924 1037.11 14.3739C1034.52 14.2683 1032.33 11.8211 1034.87 11.6769Z" fill="white"/>
<path d="M865.977 9.60589C865.798 8.86084 866.22 8.37302 867.592 8.31832C867.401 8.90401 868.31 9.99482 865.977 9.60589Z" fill="white"/>
<path d="M1065.93 13.9534C1067.46 12.469 1072.39 13.8334 1071.33 15.3908C1068.93 15.1421 1065.82 15.1939 1065.93 13.9534Z" fill="white"/>
<path d="M897.494 20.5085C894.574 20.5737 893.533 18.9136 895.261 18.1417L896.664 18.3318C896.532 18.1148 896.472 17.8967 896.428 17.6615L895.267 17.8104C890.151 15.5407 895.727 13.2671 894.764 10.5153C895.827 10.5566 896.472 10.3951 897.11 10.2405C897.844 11.0883 899.571 12.1763 897.023 12.5556C903.617 12.69 898.78 16.3991 897.594 17.8565C900.806 18.305 897.452 19.4935 897.494 20.5085Z" fill="white"/>
<path d="M1013.8 12.9198C1016.12 14.0758 1010.89 13.8486 1013.8 12.9198Z" fill="white"/>
<path d="M1404.88 28.3711C1402.9 25.7383 1410.06 24.4957 1413.64 23.2553L1413.61 23.9129L1415.16 23.9409C1412.14 25.6039 1409.74 27.5462 1404.88 28.3711Z" fill="white"/>
<path d="M1008.91 18.4395C1008.9 18.6536 1008.9 18.8784 1008.89 19.0963L1007.73 18.9129C1008.3 19.0846 1008.67 19.2124 1009.04 19.3237C1009.34 19.7568 1009 20.238 1008.44 20.5787L1007.95 19.4276C1005.94 19.6167 1006.83 21.1078 1003.39 20.6479C1003.79 18.0978 1004.12 17.1846 1003.62 14.3607C1007.55 12.7295 1010.88 15.3979 1009.73 17.7955C1012.97 17.0887 1017.91 18.1063 1018.22 19.6128C1014.26 20.1398 1012.52 18.9081 1008.91 18.4395Z" fill="white"/>
<path d="M1120.28 18.0284C1120.42 17.1826 1121.47 16.7687 1123.44 16.7619C1123.42 17.2055 1123.41 17.6385 1123.39 18.0821C1122.35 18.0725 1121.32 18.0477 1120.28 18.0284Z" fill="white"/>
<path d="M1271.2 21.7164C1271.21 21.4969 1271.21 21.2791 1271.22 21.0547C1271.74 21.0673 1272.26 21.0846 1272.78 21.0923C1272.79 21.3108 1272.77 21.5301 1272.76 21.7545C1272.23 21.7411 1271.72 21.7288 1271.2 21.7164Z" fill="white"/>
<path d="M1038.53 17.7059C1038.5 17.5033 1038.43 17.3121 1037.77 17.3611C1037.88 16.9588 1038.03 16.5815 1039.35 16.7313C1039.21 17.1172 1039.46 17.6742 1038.53 17.7059Z" fill="white"/>
<path d="M845.584 13.8392C845.467 13.1095 846.245 12.7915 847.957 12.8915C847.943 13.2112 847.917 13.554 847.91 13.8804C847.132 13.8659 846.368 13.8526 845.584 13.8392Z" fill="white"/>
<path d="M486.878 6.96083C486.929 6.50095 486.537 6.23974 486.146 5.95251C487.192 5.87667 487.652 5.52145 489.271 5.69145C488.918 6.3175 488.929 7.10763 486.878 6.96083Z" fill="white"/>
<path d="M950.58 16.6112C950.594 16.2646 950.607 15.9382 950.627 15.6116C951.398 15.6251 952.183 15.6444 952.96 15.6588C953.077 16.378 952.286 16.7005 950.58 16.6112Z" fill="white"/>
<path d="M1216.62 23.5963C1211.78 23.6885 1209.38 22.7945 1208.14 21.4416C1211.39 20.8319 1217.37 21.5705 1216.62 23.5963Z" fill="white"/>
<path d="M521.134 7.31902C521.182 7.3239 521.066 7.6302 521.114 7.64557C524.749 9.51882 517.403 6.97045 521.134 7.31902Z" fill="white"/>
<path d="M1038.45 20.0264C1037.96 18.7946 1039.73 18.5832 1042.38 18.7742C1042.21 19.695 1040.98 20.1648 1038.45 20.0264Z" fill="white"/>
<path d="M743.565 14.0926C746.384 13.8209 744.447 13.0412 747.506 12.8616C748.444 12.8031 751.269 13.4282 752.93 13.6251C752.911 14.0639 752.888 14.5074 752.876 14.951C750.047 15.4579 746.628 15.4837 743.565 14.0926Z" fill="white"/>
<path d="M1379.2 27.8575C1374.81 27.7067 1378.19 26.0898 1380.05 25.8873C1380.58 26.9156 1378.67 26.8359 1379.2 27.8575Z" fill="white"/>
<path d="M1155.98 21.3801C1158.97 21.1804 1158.91 23.0297 1155.93 22.7108C1155.95 22.2778 1155.96 21.8295 1155.98 21.3801Z" fill="white"/>
<path d="M798.763 16.5296C798.125 15.7067 798.068 14.2762 801.177 14.2665C802.144 15.2431 801.839 16.52 798.763 16.5296Z" fill="white"/>
<path d="M1355.92 25.7385C1355.91 26.0591 1355.89 26.3961 1355.88 26.7215C1353.6 27.167 1353.68 25.1998 1355.92 25.7385Z" fill="white"/>
<path d="M1218.21 22.972C1218.72 22.9788 1219.24 22.9855 1219.76 23.0037C1219.79 23.4253 1220.73 23.4791 1220.51 24.012C1219.72 23.9936 1218.94 23.9803 1218.17 23.966C1218.19 23.6347 1218.2 23.2928 1218.21 22.972Z" fill="white"/>
<path d="M822.087 17.3329C820.209 17.429 820.411 16.6992 818.212 16.923C817.096 15.2484 824.455 15.1516 824.466 16.0483C823.317 16.3182 821.981 16.5014 822.087 17.3329Z" fill="white"/>
<path d="M523.346 10.3431C522.843 9.18133 526.122 9.21223 527.267 9.76436C528.022 10.8849 524.818 10.2279 523.346 10.3431Z" fill="white"/>
<path d="M1200.24 24.2674C1200.24 23.6961 1200.88 23.4232 1201.84 23.2946C1202.94 23.816 1202.94 24.6062 1200.24 24.2674Z" fill="white"/>
<path d="M811.984 16.7985C812.002 16.3598 812.02 15.9102 812.032 15.4725C812.809 15.4917 813.587 15.5052 814.365 15.5186C814.551 16.402 814.028 16.9397 811.984 16.7985Z" fill="white"/>
<path d="M1422.74 29.3897C1424.59 29.3263 1424.24 28.2741 1426.67 28.4796C1427.02 29.3436 1423.85 30.2999 1422.74 29.3897Z" fill="white"/>
<path d="M762.951 16.1389C765.329 15.7673 769.373 16.1484 770.767 15.3121C771.055 15.7883 771.679 15.8844 770.736 16.3011L769.553 16.6573L769.918 17.2824C767.838 18.0754 762.377 18.1034 762.951 16.1389Z" fill="white"/>
<path d="M773.021 17.673L774.438 17.8632L775.367 17.3879C777.233 17.7249 777.37 18.759 777.607 19.749C774.795 19.7855 774.64 18.7618 772.204 18.6428C772.187 18.1944 772.594 17.9313 773.021 17.673Z" fill="white"/>
<path d="M514.734 11.8236C515.007 11.0717 514.652 10.5533 514.022 10.153C519.152 10.4986 522.957 11.3647 524.018 13.3292C519.216 14.8088 517.873 11.0017 514.734 11.8236Z" fill="white"/>
<path d="M1122.4 23.367C1121.27 23.7063 1120.5 23.6871 1120.1 22.9797C1121.16 23.0257 1121.8 22.8598 1122.43 22.7055C1122.43 22.924 1122.42 23.1485 1122.4 23.367Z" fill="white"/>
<path d="M794.005 18.7571C794.295 20.0072 792.298 20.2279 790.814 20.6696L789.628 20.8185L790.017 21.3196C785.777 21.2034 784.476 22.3951 780.632 22.4557C779.034 20.0995 783.979 17.9696 789.36 17.671C790.598 17.7201 789.952 18.5268 791.678 18.3749C791.171 17.3467 791.159 17.7314 791.746 16.7224C793.224 16.612 793.726 16.0532 795.662 16.1434C797.259 16.9595 796.035 18.5411 794.005 18.7571Z" fill="white"/>
<path d="M1006.45 21.6969C1007 22.9432 1005.52 23.2946 1003.29 23.2888C1003.06 22.513 1003.46 22.0137 1004.13 21.6448C1004.91 21.6689 1005.69 21.6778 1006.45 21.6969Z" fill="white"/>
<path d="M1290.36 29.3803C1290.44 28.7755 1286.43 28.1801 1288.88 27.701C1288.87 28.2839 1293.21 28.7448 1290.36 29.3803Z" fill="white"/>
<path d="M1104.42 25.6413C1103.24 23.529 1108.57 23.8028 1108.33 25.3986C1107.4 25.6492 1106.22 25.7874 1104.42 25.6413Z" fill="white"/>
<path d="M899.807 21.2111C899.28 21.1987 898.764 21.191 898.244 21.1795C898.253 20.9552 898.262 20.7366 898.264 20.5123C898.799 20.5305 899.305 20.5429 899.826 20.5449C899.818 20.7691 899.808 20.9878 899.807 21.2111Z" fill="white"/>
<path d="M575.323 15.3553C575.22 14.641 576.011 14.3183 577.696 14.4123C577.819 15.1372 577.021 15.4552 575.323 15.3553Z" fill="white"/>
<path d="M1428.01 33.7988C1426.72 33.238 1427.38 32.0781 1428.87 31.8286C1430.18 32.3893 1429.53 33.5491 1428.01 33.7988Z" fill="white"/>
<path d="M1108.27 26.7242C1108.08 25.8456 1108.61 25.2973 1110.66 25.4453C1110.3 26.0703 1110.32 26.8606 1108.27 26.7242Z" fill="white"/>
<path d="M895.885 21.7961C895.363 21.7836 894.849 21.7604 894.322 21.7692C894.337 21.5448 894.353 21.3195 894.356 21.0961C894.869 21.1085 895.39 21.1211 895.91 21.1335C895.908 21.3588 895.9 21.5823 895.885 21.7961Z" fill="white"/>
<path d="M751.945 18.8993C751.954 18.6855 751.964 18.4678 751.972 18.2435C752.75 18.257 753.534 18.2751 754.305 18.2944C754.296 18.5071 754.287 18.7316 754.279 18.9454C753.513 18.9309 752.729 18.9174 751.945 18.8993Z" fill="white"/>
<path d="M1417.19 32.2619C1417.7 32.2743 1418.22 32.2764 1418.74 32.2897C1418.74 32.5025 1418.73 32.7219 1418.72 32.9462C1418.2 32.928 1417.68 32.926 1417.16 32.9241C1417.17 32.6999 1417.18 32.4861 1417.19 32.2619Z" fill="white"/>
<path d="M1328.38 33.4464C1327.67 31.3437 1330.13 30.66 1333.94 30.5852C1334.55 32.6638 1332.48 33.5222 1328.38 33.4464Z" fill="white"/>
<path d="M619.649 16.9117C620.569 16.6449 621.75 16.5182 623.559 16.6594C624.426 17.0664 624.395 17.8366 624.249 18.6565C621.235 18.6642 618.876 18.4097 619.649 16.9117Z" fill="white"/>
<path d="M538.264 27.5194C540.003 24.6265 534.14 22.6091 533.108 19.7998C538.533 18.0475 543.396 22.3671 541.496 24.5947C543.956 24.2701 543.353 25.1564 544.587 25.3284C546.079 23.9889 543.357 22.1378 545.531 20.7177C540.673 19.5119 540.54 17.0778 541.073 15.0018C548.998 14.8252 544.656 19.579 549.459 19.797C548.499 21.0846 550.353 22.1599 547.777 23.0681C551.061 23.3859 551.411 24.8818 551.538 26.4554C548.03 27.1141 542.929 29.4705 538.264 27.5194Z" fill="white"/>
<path d="M751.114 20.5373C750.594 20.5248 750.073 20.5112 749.552 20.5045C749.568 20.2803 749.576 20.0724 749.578 19.8375C750.099 19.8606 750.612 19.8681 751.134 19.8807C751.125 20.1049 751.115 20.3236 751.114 20.5373Z" fill="white"/>
<path d="M1450.53 35.9043C1449.75 35.891 1448.97 35.8718 1448.19 35.8526C1448 35.0969 1448.43 34.6198 1449.8 34.5699C1450.03 35.0144 1450.88 35.2197 1450.53 35.9043Z" fill="white"/>
<path d="M801.628 22.8808C799.441 23.3618 799.527 21.4051 800.904 21.5366C800.699 22.1597 801.744 22.2806 801.628 22.8808Z" fill="white"/>
<path d="M1118.32 28.5653C1120.64 29.7376 1115.41 29.521 1118.32 28.5653Z" fill="white"/>
<path d="M774.411 22.01C774.899 22.775 771.342 22.6533 772.084 21.9582C772.336 21.688 774.158 21.6036 774.411 22.01Z" fill="white"/>
<path d="M795.379 23.4137C795.393 23.0873 794.762 23.0068 794.636 22.7427C795.623 22.7312 795.715 22.3288 796.975 22.4518C796.96 22.7772 796.949 23.12 796.942 23.4455C796.421 23.4282 795.894 23.4205 795.379 23.4137Z" fill="white"/>
<path d="M1417.85 35.2416C1420.75 35.2781 1422.28 35.8668 1423.25 36.6791C1421.56 37.1879 1417.4 36.5954 1417.85 35.2416Z" fill="white"/>
<path d="M770.455 23.5666C770.464 23.3528 770.472 23.1389 770.482 22.9099C771.004 22.9281 771.517 22.9405 772.037 22.9425C772.035 23.1667 772.026 23.3852 772.01 23.6047C771.496 23.5913 770.976 23.5895 770.455 23.5666Z" fill="white"/>
<path d="M741.682 22.6733C742.681 22.6665 742.768 22.2718 744.028 22.3887C745.208 23.2217 741.35 23.3077 741.682 22.6733Z" fill="white"/>
<path d="M751.784 23.2074C753.252 23.3063 753.514 22.8683 754.915 22.9249C755.933 24.4198 751.274 24.6485 751.784 23.2074Z" fill="white"/>
<path d="M1563.26 40.4754C1564.86 40.3304 1564.82 39.5191 1566.38 40.2142C1567.6 41.1495 1562.98 41.0572 1563.26 40.4754Z" fill="white"/>
<path d="M798.417 25.4626C797.897 25.4551 797.376 25.4425 796.861 25.4243C796.877 25.2057 796.873 24.9873 796.888 24.7678C797.402 24.7804 797.924 24.7878 798.45 24.7946C798.442 25.0246 798.433 25.2432 798.417 25.4626Z" fill="white"/>
<path d="M591.379 22.9596C590.281 22.155 589.771 22.3027 590.676 21.2831C592.739 21.3233 595.114 21.5029 596.141 21.0738C596.373 22.5226 593.582 22.613 591.379 22.9596Z" fill="white"/>
<path d="M731.445 25.7671C731.454 25.2169 731.476 24.6655 731.498 24.1155C732.282 24.1289 733.06 24.1539 733.838 24.1616C733.713 24.997 733.63 25.8583 731.445 25.7671Z" fill="white"/>
<path d="M659.116 23.3206C659.337 23.5308 661.002 24.6302 659.069 24.6408C659.834 24.0398 656.774 23.4934 659.116 23.3206Z" fill="white"/>
<path d="M1038.74 32.929C1038.51 32.1523 1038.9 31.6654 1039.57 31.2909C1040.35 31.3093 1041.13 31.3238 1041.91 31.3477C1041.82 32.305 1041.55 33.2017 1038.74 32.929Z" fill="white"/>
<path d="M600.758 22.492C600.555 23.1046 601.599 23.2256 601.482 23.8256C600.441 23.8006 599.406 23.7806 598.358 23.7604C598.723 23.1296 598.706 22.3393 600.758 22.492Z" fill="white"/>
<path d="M508.164 20.6322C508.15 20.9529 508.144 21.2957 508.123 21.6212C505.834 22.0494 505.915 20.0878 508.164 20.6322Z" fill="white"/>
<path d="M1347.61 39.4586C1347.63 39.0199 1347.64 38.5771 1347.66 38.1326C1348.7 38.1575 1349.73 38.1826 1350.77 38.2085C1351.33 39.3531 1350.27 39.7773 1347.61 39.4586Z" fill="white"/>
<path d="M560.956 24.6583C559.917 22.5067 564.141 22.7456 567.265 22.4739C568.331 23.0278 569.993 23.3419 569.524 24.5037C566.543 25.771 563.639 24.2608 560.956 24.6583Z" fill="white"/>
<path d="M696.344 27.047C695.281 27.0173 694.629 27.1718 694.004 27.332C693.677 26.3008 696.141 26.1319 696.344 27.047Z" fill="white"/>
<path d="M729.722 30.0331C729.504 29.2458 727.045 29.3621 727.443 28.3405C729.94 28.7897 728.09 27.2766 730.581 27.7431C731.631 28.2002 731.981 30.0745 729.722 30.0331Z" fill="white"/>
<path d="M703.341 27.5175C705.607 27.8584 705.721 27.8621 708.001 27.6152C707.956 28.0704 708.34 28.3423 708.751 28.6178C707.757 28.9117 703.927 28.373 703.341 27.5175Z" fill="white"/>
<path d="M637.979 26.5342C637.914 26.9951 638.305 27.2717 638.71 27.5474C637.641 27.5013 637.002 27.6615 636.356 27.8324C636.179 27.0671 636.601 26.5899 637.979 26.5342Z" fill="white"/>
<path d="M556.184 27.2064C554.128 26.183 556.724 25.2148 559.376 25.2936C559.53 26.4881 559.483 27.578 556.184 27.2064Z" fill="white"/>
<path d="M465.95 24.7408C465.975 24.2963 465.992 23.8582 466.01 23.4253C467.813 23.3417 468.987 23.5252 469.88 23.8306C470.204 24.8608 468.19 24.8522 465.95 24.7408Z" fill="white"/>
<path d="M716.382 32.7475C712.468 33.4109 707.832 32.4843 707.895 30.5871C709.128 30.1388 710.629 29.8094 711.065 28.9999C715.741 28.9309 717.927 30.0541 717.984 31.1266C718.043 31.693 714.157 32.0582 716.382 32.7475Z" fill="white"/>
<path d="M516.497 26.4162C517.668 26.493 519.382 26.3518 519.607 26.8069C518.808 27.0451 516.659 28.3412 515.694 27.3965C516.598 27.3552 516.555 26.8857 516.497 26.4162Z" fill="white"/>
<path d="M463.577 26.0196C469.014 25.7996 470.877 27.0084 472.044 28.4947C468.304 29.0171 463.021 28.1932 463.577 26.0196Z" fill="white"/>
<path d="M568.474 31.7652C569.158 30.8395 567.415 30.8847 567.757 30.0944C568.727 28.3211 576.751 28.3615 574.723 31.2218C572.993 31.5607 571.514 32.0129 568.474 31.7652Z" fill="white"/>
<path d="M612.116 30.6454C613.652 30.7855 613.668 30.2403 614.482 30.0397C616.677 30.5898 612.892 31.5893 612.116 30.6454Z" fill="white"/>
<path d="M416.045 26.7188C416.062 26.4944 416.063 26.2759 416.073 26.0515C416.851 26.0708 417.628 26.0842 418.412 26.0977C418.404 26.3219 418.395 26.5462 418.378 26.7599C417.607 26.7513 416.83 26.7332 416.045 26.7188Z" fill="white"/>
<path d="M1056.37 39.907C1055.84 39.8841 1055.35 39.8813 1054.81 39.8745C1054.81 39.8275 1054.81 39.7855 1054.82 39.7395C1054.83 39.5612 1054.84 39.3866 1054.84 39.2122C1055.36 39.2199 1055.88 39.2323 1056.4 39.2447C1056.39 39.4595 1056.38 39.6779 1056.37 39.907Z" fill="white"/>
<path d="M500.857 28.4169C501.333 28.2376 504.574 27.7201 504.746 28.4908C504.27 28.6796 501.029 29.1933 500.857 28.4169Z" fill="white"/>
<path d="M472.828 28.183C473.507 27.701 475.361 27.7605 476.751 27.5993C477.404 29.1423 473.111 29.7327 472.828 28.183Z" fill="white"/>
<path d="M530.375 30.3335C529.379 29.8697 529.39 29.0787 531.2 29.0268C532.197 29.4916 531.64 30.0291 530.375 30.3335Z" fill="white"/>
<path d="M663.461 32.0033C663.656 32.8876 662.341 33.07 660.31 32.9327C659.57 31.8228 661.431 31.8824 663.461 32.0033Z" fill="white"/>
<path d="M510.928 29.9456C511.011 29.4203 510.863 28.7936 512.51 28.9894C512.507 29.2035 512.498 29.4224 512.49 29.6518C511.712 29.6326 511.562 29.8918 510.928 29.9456Z" fill="white"/>
<path d="M828.311 37.9626C827.837 38.2488 825.695 38.3112 825.161 38.5656C823.889 39.1955 824.899 40.579 822.009 39.8263C821.158 39.1782 820.112 38.6241 819.75 37.8024C822.757 37.1321 825.803 34.7192 830.71 36.0365C827.562 35.7686 829.178 37.4509 828.311 37.9626Z" fill="white"/>
<path d="M684.385 34.7493C684.403 34.3057 684.421 33.8726 684.432 33.4242C686.995 33.4876 689.941 33.4003 689.835 34.5295C689.466 35.262 686.004 34.5784 684.385 34.7493Z" fill="white"/>
<path d="M467.337 29.3988C468.669 29.4133 469.331 29.6959 469.65 30.1119C468.299 30.0975 467.671 29.8091 467.337 29.3988Z" fill="white"/>
<path d="M507.751 31.5319C507.753 31.3239 507.761 31.089 507.784 30.8753C508.291 30.8877 508.812 30.8897 509.332 30.903C509.316 31.1159 509.315 31.3449 509.305 31.5644C508.784 31.552 508.271 31.5501 507.751 31.5319Z" fill="white"/>
<path d="M819.704 39.1226C819.679 39.5603 819.662 40.004 819.651 40.4427C818.285 40.4331 817.235 40.3122 816.546 40.0511C816.338 39.1735 817.666 38.9911 819.704 39.1226Z" fill="white"/>
<path d="M466.374 34.3391C464.868 35.091 465.027 35.2589 462.419 35.9118C464.77 36.8239 458.18 37.8003 456.15 36.7874C456.464 34.6337 463.476 31.2033 466.374 34.3391Z" fill="white"/>
<path d="M331.698 33.6201C328.624 33.5923 328.304 31.3005 329.459 30.5976C330.25 30.616 331.021 30.6349 331.806 30.6541C332.37 31.4348 333.254 32.9643 331.698 33.6201Z" fill="white"/>
<path d="M440.625 35.8092C440.549 35.6826 440.555 35.5875 440.578 35.4991C438.265 36.7176 435.592 38.1663 433.093 36.2267L433.525 35.241L432.248 34.6147C434.958 33.9945 441.406 33.1707 442.405 34.6147C442.031 34.7616 441.635 34.9527 441.23 35.1601C442.245 35.0392 444.008 35.4472 443.728 35.8639C441.605 35.8571 442.181 35.2917 440.625 35.8092Z" fill="white"/>
<path d="M484.113 38.667C486.783 37.7267 486.43 39.9294 484.113 38.667Z" fill="white"/>
<path d="M371.957 39.7274C370.652 39.6909 369.36 39.6804 368.055 39.643C363.65 37.1898 371.297 34.679 374.376 37.4528C373.035 37.9733 373.332 39.229 371.957 39.7274Z" fill="white"/>
<path d="M424.119 39.7725C423.793 38.7307 425.139 38.4524 426.513 38.1728C426.217 38.9362 425.664 39.5824 424.119 39.7725Z" fill="white"/>
<path d="M388.294 40.0526C390.609 41.2133 385.373 41.0025 388.294 40.0526Z" fill="white"/>
<path d="M659.556 52.7767C659.453 52.3888 658.194 51.9983 659.589 51.7821C659.686 52.1758 660.944 52.5607 659.556 52.7767Z" fill="white"/>
<path d="M1502.04 12.4535C1500.75 13.8909 1498.75 14.9989 1495.68 15.6335C1494.22 14.0492 1489.04 13.9552 1489.61 11.5424C1484.94 10.9164 1481.7 9.69917 1475.66 9.61358C1475.55 7.20564 1483.31 8.36814 1483.59 6.13094C1487.36 6.035 1492.01 6.35283 1493.75 5.35042L1494.89 5.53003L1494.54 5.02313C1495.56 4.59488 1497.93 4.77922 1499.99 4.80805C1501.56 8.01868 1504.45 10.2031 1505.9 13.1978C1503.63 14.1368 1504.59 12.347 1502.04 12.4535Z" fill="white"/>
<path d="M1425.45 40.0338C1423.94 40.1289 1424.79 41.3116 1422.3 40.9573L1422.71 40.4698L1421.55 40.2968C1421.82 39.9079 1424.98 39.2128 1425.45 40.0338Z" fill="white"/>
<path d="M1413.35 30.8512L1413.75 30.3749L1412.59 30.18C1413.94 29.5751 1417.43 28.8319 1419.61 29.6557C1419.04 31.3696 1417.11 31.1613 1413.35 30.8512Z" fill="white"/>
<path d="M1308.26 30.0783L1307.36 29.5538L1305.94 29.6845C1306.17 28.7349 1304.21 28.6398 1304.46 27.6844C1306.87 27.5375 1306.57 26.1637 1309.18 26.1195C1308.23 28.0264 1313.14 29.3543 1308.26 30.0783Z" fill="white"/>
<path d="M1242.12 28.7445C1242.5 30.2126 1246.24 30.3633 1247.47 31.4963C1246.49 32.849 1243.61 31.3907 1241.24 31.3715L1240.31 30.9057L1238.92 30.9991C1239.53 30.038 1240.87 29.407 1242.12 28.7445Z" fill="white"/>
<path d="M1139.52 24.0291C1141.09 23.7354 1142.86 23.5299 1143.46 22.7983C1140.91 18.5035 1143.44 16.6015 1145.41 12.5775C1151.64 12.3711 1153.12 10.0061 1160.28 10.2318C1161.57 12.1501 1156.95 11.4157 1157.08 12.808C1161.74 12.7877 1155.22 17.5884 1155.26 19.3935C1147.71 20.3536 1153.21 25.6308 1149.49 27.8785C1145.55 27.5443 1143.82 26.3076 1139.41 27.0123L1138.64 26.8328L1137.85 26.9797C1138.15 25.89 1140.16 25.5625 1139.52 24.0291Z" fill="white"/>
<path d="M1088.41 16.7215C1091.36 16.6715 1093.7 15.0663 1096.99 16.2349C1097.41 17.4293 1096.03 17.816 1095.35 18.5112C1092.47 18.1319 1093.34 17.7709 1089.92 18.0791L1089.54 17.5731L1088.37 17.721C1088.38 17.3839 1088.4 17.0528 1088.41 16.7215Z" fill="white"/>
<path d="M1083.66 18.6178C1081.47 18.5103 1078.32 18.7983 1078.25 17.8382L1078.65 17.3563L1077.48 17.167C1079.13 15.3121 1083.08 16.5601 1086.13 15.3541C1085.77 16.1405 1087.51 16.1051 1086.84 17.0201C1083.34 16.4498 1085.11 18.2568 1083.66 18.6178Z" fill="white"/>
<path d="M834.631 14.9417L834.629 14.6104L833.872 14.5807C832.999 14.5048 832.668 14.1947 832.331 13.9008C833.8 13.6676 835.207 13.4035 837.03 13.3354C837.363 14.3782 836.003 14.6632 834.631 14.9417Z" fill="white"/>
<path d="M788.22 27.2418C789.482 27.4983 789.554 25.7027 788.266 25.9158L788.669 25.7605L789.059 25.6038C789.155 25.0306 788.928 24.5699 788.341 24.2693C790.786 24.4748 791.401 23.8544 793.021 23.7046C792.982 24.4804 794.339 24.7023 793.738 25.6902C797.482 25.9322 799.482 26.8817 799.061 28.7848C801.551 29.2082 803.209 29.9601 802.856 31.5048L801.69 31.311L801.288 31.8085C796.366 30.5083 792.591 28.7609 788.22 27.2418Z" fill="white"/>
<path d="M781.162 28.7503C777.555 27.913 776.076 30.9298 770.207 30.1904C769.568 28.0905 773.83 28.8684 771.863 27.5665C772.928 26.7791 774.189 28.2163 774.987 27.3109C771.28 25.2524 763.621 28.1385 761.84 25.0479L763.016 24.6966L762.644 24.0838C765.378 23.5836 761.88 21.7776 765.862 21.5078L766.238 22.0041L767.404 21.8669C766.492 24.2222 772.905 24.0454 775.047 25.6546C777.793 25.1111 779.273 26.6783 782.831 25.8064L782.531 26.3939L783.56 26.8193C785.012 27.9802 779.745 27.9446 781.162 28.7503Z" fill="white"/>
<path d="M767.411 21.5232L767.049 21.0269L765.875 21.1641C765.493 19.9898 766.598 19.4801 768.282 19.2323C769.573 19.8094 771.404 20.1522 771.319 21.2757C770.412 21.5368 769.226 21.6692 767.411 21.5232Z" fill="white"/>
<path d="M761.057 25.0394C758.522 25.071 757.329 24.5727 757.215 23.6404C758.227 23.2065 761.896 23.1499 761.874 24.059L760.685 24.4315L761.057 25.0394Z" fill="white"/>
<path d="M788.114 30.2145C790.492 30.5159 789.637 29.3398 792.015 29.6249C791.184 30.3392 796.181 32.6532 791.123 32.9259L790.748 32.4248L789.576 32.5562C789.743 31.5221 787.558 31.4147 788.114 30.2145Z" fill="white"/>
<path d="M740.676 28.5927L739.253 28.4083L738.323 28.8836C735.892 28.9883 734.575 28.391 736.031 27.8428L737.203 27.7054L736.841 27.1985C738.754 27.1985 740.593 27.2158 741.486 27.6229C741.51 28.0771 741.097 28.3402 740.676 28.5927Z" fill="white"/>
<path d="M699.878 36.7213L699.1 36.6916C698.908 35.937 699.337 35.453 700.716 35.4039C702.386 36.1288 702.262 36.681 699.865 37.042L699.878 36.7213Z" fill="white"/>
<path d="M623.521 37.8254L622.733 38.2555L622.71 38.8009C622.66 38.9998 622.576 39.1928 621.92 39.1189L621.551 38.6175L620.392 38.4342C619.841 37.6843 623.303 37.1244 623.521 37.8254Z" fill="white"/>
<path d="M605.954 28.8741C601.474 27.3359 608.735 25.4023 604.586 23.8804C606.978 24.1713 606.122 23.0048 608.507 23.3063C611.067 24.1243 608.833 26.8646 612.249 27.3418C611.754 27.9053 608.549 27.2438 608.327 27.9207C608.318 28.1453 608.316 28.369 608.307 28.5946L606.883 28.394L605.954 28.8741Z" fill="white"/>
<path d="M598.184 28.3903L597.012 28.5276L597.38 29.023C593.918 29.0067 594.666 27.2899 592.802 26.6322L593.99 26.2598L593.626 25.6404C595.612 25.65 596.365 25.0923 597.547 24.736C599.735 24.956 600.823 25.605 602.964 25.8365C603.624 27.7001 600.288 27.7672 598.184 28.3903Z" fill="white"/>
<path d="M586.632 25.1767C583.148 25.3735 582.326 24.5007 582.026 23.4263C583.804 22.7657 587.168 23.2977 587.443 24.2059L586.268 24.562L586.632 25.1767Z" fill="white"/>
<path d="M1552.32 21.0739C1553.23 22.7734 1555.02 24.1215 1556.83 25.4591C1554.92 27.0788 1558.26 31.05 1551.19 30.3144C1550.97 29.5435 1551.36 29.0508 1552.03 28.6755C1548.98 28.5881 1548.48 27.485 1546.65 26.907L1546.66 26.5815L1545.88 26.5787C1548.59 24.9944 1548.04 21.9477 1552.32 21.0739Z" fill="white"/>
<path d="M642.982 38.2142C646.648 40.2575 650.76 37.4529 651.63 36.0818C652.922 36.0981 654.22 36.1229 655.525 36.1547C656.711 35.0122 658.973 32.9439 661.846 33.6334C659.711 35.9665 662.672 36.8681 665.562 38.0154C664.961 38.073 664.66 38.2661 664.763 38.654C665.027 38.6598 665.277 38.6615 665.541 38.6673L665.132 39.1504L665.502 39.6622C663.603 40.389 664.272 40.698 664.637 41.9578C663.697 42.3207 661.873 42.2777 659.957 42.1912C658.885 41.9637 659.897 40.9267 658.456 40.8432C658.181 41.9588 657.969 43.0898 656.779 43.7831C651.985 43.351 647.533 43.4959 642.003 43.156C645.992 41.5286 642.482 39.1735 642.982 38.2142Z" fill="white"/>
<path d="M1477.13 11.9544C1476.73 11.1489 1472.11 12.0168 1472.51 10.8674C1473.94 10.0476 1478.59 11.7058 1477.13 11.9544Z" fill="white"/>
<path d="M871.944 16.6862C875.127 17.0059 872.015 20.7236 874.069 22.351C872.371 22.2511 871.573 22.5691 871.69 23.2891C875.683 23.868 875.071 22.3509 878.715 22.7753C878.638 25.5491 870.62 27.1057 869.33 23.9112C866.831 24.974 861.895 22.9463 859.201 24.0399C859.331 22.2367 854.389 22.4864 855.459 20.3261C857.566 19.8797 860.528 20.5555 862.485 19.4705C861.347 19.0577 860.632 18.4817 858.643 18.3971C858.679 17.51 858.708 16.6334 858.743 15.7568C859.35 15.6925 860.278 15.773 860.306 15.4571C862.583 15.4187 862.969 16.1342 864.16 16.5249C865.648 14.9618 869.162 14.304 873.592 14.0688C875.058 15.266 873.279 15.873 871.944 16.6862Z" fill="white"/>
<path d="M658.471 20.0024C660.093 20.5583 661.243 21.2803 660.698 22.6898C657.239 23.1008 658.706 21.5319 656.072 21.6029C654.471 23.2486 657.14 22.5352 657.534 23.9611C654.433 24.3759 652.158 23.9064 647.424 23.7462C647.431 23.4254 647.444 23.0835 647.457 22.7522L648.631 22.6207L648.269 22.1138C648.276 22.1138 648.276 22.1138 648.289 22.1138L647.773 21.3638C648.049 21.6106 648.298 21.8574 648.445 22.1003C653.701 21.7077 654.248 16.831 651.613 15.8919C653.402 15.4713 654.506 16.8099 654.73 15.9515C653.058 13.8747 652.439 11.1183 659.57 11.414C658.198 13.0242 662.422 13.962 659.424 15.3908C662.964 15.2891 660.627 17.3208 661.683 17.4254C663.663 16.7514 665.084 15.8192 668.742 15.8959C668.837 18.1916 665.957 19.1266 665.431 21.1343C662.213 21.4839 660.393 19.7623 658.471 20.0024Z" fill="white"/>
<path d="M665.09 30.053C662.383 30.2748 662.118 29.5107 659.66 29.6211C659.462 30.2432 660.5 30.3651 660.384 30.9604C656.502 31.2073 655.101 30.4563 654.209 29.5107C655.582 29.236 656.941 28.9509 656.616 27.91L657.775 27.7622L658.191 27.284C659.822 28.6724 660.016 26.9326 662.87 27.0402C663.246 28.1924 664.889 28.8432 665.09 30.053Z" fill="white"/>
<path d="M1541.38 12.0907C1539.76 12.7589 1537.71 13.2054 1535.8 13.7076L1541.38 12.0907Z" fill="white"/>
<path d="M877.984 11.3369L875.977 12.9578C876.05 12.2886 876.415 11.6202 877.984 11.3369Z" fill="white"/>
<path d="M535.741 1.81634L534.001 2.34245C534.462 2.09987 534.896 1.83644 535.741 1.81634Z" fill="white"/>
<path d="M534.001 2.34246C533.613 2.54188 533.239 2.72947 532.598 2.75638L534.001 2.34246Z" fill="white"/>
<path d="M1413.61 23.9129L1416.9 22.7129C1416.05 23.2199 1414.69 23.4992 1413.61 23.9129Z" fill="white"/>
<path d="M774.438 17.8632L769.553 16.6573C771.149 17.0905 773.936 16.8511 774.438 17.8632Z" fill="white"/>
<path d="M789.628 20.8185C790.323 21.1487 790.941 21.5866 791.148 21.8401L789.628 20.8185Z" fill="white"/>
<path d="M1419.57 41.0679L1422.71 40.4718C1421.57 40.8532 1420.88 40.8857 1419.57 41.0679Z" fill="white"/>
<path d="M1239.5 32.4966C1239.35 31.8052 1239.87 31.4856 1240.31 30.9057L1239.5 32.4966Z" fill="white"/>
<path d="M1136.64 28.1118L1138.64 26.8328C1138.37 27.1361 1138 27.5387 1136.64 28.1118Z" fill="white"/>
<path d="M1125.83 18.9597L1127.92 21.4147C1126.92 20.6619 1125.46 20.0773 1125.83 18.9597Z" fill="white"/>
<path d="M1089.09 19.2257C1089.08 18.6707 1089.08 18.1204 1089.54 17.5731L1089.09 19.2257Z" fill="white"/>
<path d="M801.69 31.311L804.768 32.4344C803.552 32.1233 801.929 32.0762 801.69 31.311Z" fill="white"/>
<path d="M788.669 25.7605C786.8 26.2502 784.939 26.4533 782.531 26.3939L788.669 25.7605Z" fill="white"/>
<path d="M790.748 32.4248L790.695 33.7392C790.314 33.2919 790.467 32.8577 790.748 32.4248Z" fill="white"/>
<path d="M681.435 40.4785L679.119 39.9367C679.737 40.0315 680.348 40.1604 681.435 40.4785Z" fill="white"/>
<path d="M597.874 29.0045L600.062 30.2403C599.248 30.1147 598.775 30.0637 598.346 29.9697C598.246 29.6508 598.177 29.2984 597.874 29.0045Z" fill="white"/>
<path d="M593.99 26.2598C591.747 26.0409 589.945 25.4311 588.008 24.951L593.99 26.2598Z" fill="white"/>
<path d="M523.78 29.815L525.647 29.1958C525.198 29.4172 524.729 29.655 523.78 29.815Z" fill="white"/>
<path d="M621.551 38.6175L621.493 40.077C621.443 39.6449 621.033 39.0744 621.551 38.6175Z" fill="white"/>
<path d="M648.276 17.9303C648.388 18.1041 648.446 18.3009 648.254 18.4641C647.129 18.6542 646.546 18.9039 646.315 19.1909L642.738 13.8928C645.223 15.1074 644.952 17.025 648.276 17.9303Z" fill="white"/>
<path d="M646.315 19.1909L647.773 21.3638C646.939 20.5919 645.841 19.8084 646.315 19.1909Z" fill="white"/>
<path d="M657.775 27.7622L655.451 27.1814C656.385 27.2188 657.278 27.2637 657.775 27.7622Z" fill="white"/>
<path d="M652.775 26.5104L655.451 27.1814C654.708 27.1517 653.944 27.142 653.344 26.9178C653.199 26.7596 652.987 26.635 652.775 26.5104Z" fill="white"/>
</g>
<defs>
<clipPath id="clip0_1_43">
<rect width="1600" height="68" fill="white" transform="matrix(1 0 0 -1 0 68)"/>
</clipPath>
</defs>
</svg>
